<svg width="18" height="18" viewBox="0 0 18 18" fill="none" xmlns="http://www.w3.org/2000/svg">
<path fill-rule="evenodd" clip-rule="evenodd" d="M8.51039 1.00668C8.46755 1.01164 8.31733 1.02664 8.17657 1.04001C6.63441 1.18658 5.10285 1.83115 3.87518 2.85029C2.41886 4.05924 1.43317 5.76288 1.11161 7.62678C1.02041 8.15547 1 8.40709 1 9.00267C1 9.59826 1.02041 9.84988 1.11161 10.3786C1.68425 13.6977 4.30337 16.316 7.62364 16.8884C8.15251 16.9796 8.40421 17 9 17C9.59579 17 9.84749 16.9796 10.3764 16.8884C11.754 16.6509 13.0383 16.057 14.1248 15.1551C15.5811 13.9461 16.5668 12.2425 16.8884 10.3786C16.9796 9.84988 17 9.59826 17 9.00267C17 8.40709 16.9796 8.15547 16.8884 7.62678C16.3863 4.71627 14.3135 2.32309 11.4885 1.39214C10.9985 1.23065 10.4819 1.11752 9.91245 1.04693C9.65162 1.01458 8.6826 0.986794 8.51039 1.00668ZM9.75667 1.66318C11.8499 1.88435 13.7276 2.96726 14.9714 4.67067C15.7308 5.71074 16.1927 6.91933 16.3463 8.26851C16.3806 8.5696 16.3806 9.43574 16.3463 9.73684C16.1468 11.4892 15.4196 13.0181 14.2139 14.2202C13.0042 15.4261 11.4848 16.1474 9.73441 16.3465C9.43322 16.3808 8.56679 16.3808 8.26559 16.3465C6.87726 16.1886 5.64961 15.709 4.57835 14.9062C4.17754 14.6058 4.15706 14.5789 4.50451 14.809C5.93033 15.7535 7.7221 16.1574 9.38548 15.9092C12.1639 15.4947 14.4568 13.4107 15.13 10.6881C15.2721 10.1133 15.3068 9.80619 15.3068 9.12503C15.3068 8.49252 15.2749 8.17547 15.1627 7.69214C14.6095 5.30972 12.7652 3.41702 10.48 2.88662C9.16676 2.5818 7.82361 2.73803 6.63241 3.33413C4.98906 4.1565 3.81754 5.74055 3.53428 7.52322C3.48641 7.82447 3.46843 8.55672 3.50114 8.87342C3.56459 9.48791 3.73578 10.077 4.01383 10.6379C4.28218 11.1791 4.54561 11.553 4.95995 11.9809C5.36902 12.4033 5.80063 12.7186 6.3311 12.9825C8.06532 13.8455 10.1008 13.5476 11.4792 12.229C12.7028 11.0585 13.1485 9.37523 12.6383 7.85108C12.175 6.46702 10.972 5.44597 9.58976 5.26352C9.28464 5.22323 8.73405 5.24888 8.44332 5.31689C7.18335 5.61167 6.19884 6.62226 5.98337 7.842C5.93797 8.09909 5.9377 8.5603 5.98283 8.81755C6.07991 9.37094 6.32649 9.84467 6.72924 10.2516C7.05991 10.5856 7.42602 10.8009 7.865 10.9195C8.13753 10.9931 8.61334 10.9928 8.89985 10.9187C9.5746 10.7444 10.1182 10.246 10.3265 9.6107C10.3852 9.43185 10.3908 9.38733 10.3895 9.11391C10.3882 8.84923 10.3808 8.79186 10.3275 8.63081C10.2081 8.2698 9.9455 7.96474 9.61099 7.79851C9.29802 7.643 9.01264 7.63198 8.72368 7.76422C8.49686 7.86803 8.35672 8.04276 8.27596 8.32246C8.17623 8.66787 8.34575 8.97533 8.66936 9.03602C8.74529 9.05026 8.74952 9.04772 8.76316 8.97954C8.77102 8.94025 8.77745 8.82928 8.77745 8.73292C8.77745 8.57256 8.78121 8.55772 8.82196 8.55772C8.84949 8.55772 8.86649 8.54286 8.86656 8.51879C8.86672 8.44371 8.95037 8.34039 9.03312 8.31309C9.19077 8.26108 9.38323 8.33916 9.55408 8.52444C9.6938 8.67597 9.75952 8.83577 9.77336 9.05776C9.79406 9.38951 9.65178 9.71221 9.36946 9.97389C8.70702 10.5878 7.65932 10.447 7.02726 9.65904C6.13768 8.55009 6.58225 6.86938 7.95317 6.15853C8.35312 5.95114 8.70706 5.86578 9.16691 5.86578C9.8746 5.86578 10.5233 6.11586 11.085 6.6052C12.3708 7.72538 12.5933 9.65368 11.6059 11.1195C11.0235 11.9841 10.1625 12.562 9.13482 12.7783C8.88957 12.8299 8.8022 12.8372 8.42137 12.8383C7.94663 12.8397 7.77255 12.8191 7.37539 12.7149C5.6884 12.2722 4.37287 10.74 4.13732 8.94358C4.09882 8.65003 4.0935 8.07526 4.12675 7.80073C4.30764 6.30677 5.17952 4.9476 6.47854 4.13452C7.05267 3.77518 7.69938 3.53082 8.37686 3.4172C8.77667 3.35017 9.50265 3.34414 9.8902 3.40465C10.4581 3.49333 10.9646 3.65353 11.4814 3.90793C13.613 4.9571 14.8957 7.27267 14.6734 9.6701C14.561 10.8812 14.0413 12.1144 13.2436 13.0628C12.9948 13.3587 12.5133 13.8223 12.2309 14.0381C11.0059 14.9741 9.49629 15.445 8.03456 15.3469C6.33871 15.2332 4.86958 14.5458 3.64611 13.2938C2.53566 12.1574 1.85047 10.7262 1.66627 9.15854C1.6277 8.83028 1.62483 8.54816 1.65701 8.25095C1.88543 6.14149 2.95999 4.27851 4.66654 3.03325C5.8133 2.19648 7.16951 1.71931 8.65505 1.62992C8.85552 1.61787 9.51658 1.63782 9.75667 1.66318Z" fill="#101010" stroke="#101010"/>
</svg>
