<svg width="64" height="41" viewBox="0 0 64 41" fill="none" xmlns="http://www.w3.org/2000/svg">
<path d="M63.6626 20.238C63.6626 31.343 55.1416 40.4761 44.5638 40.4761C34.084 40.4761 25.4651 31.343 25.4651 20.238C25.4651 9.13307 33.9861 0 44.4659 0C55.1416 0 63.6626 9.13307 63.6626 20.238Z" fill="#F9B50B"/>
<path d="M38.0995 20.3418C38.0995 18.8888 37.9036 17.4359 37.7078 16.0866H25.9547C26.0526 15.3602 26.2485 14.7374 26.4444 13.9072H36.9242C36.7283 13.1807 36.4345 12.4542 36.1407 11.7277H27.2279C27.5218 11.0012 27.9135 10.3785 28.3053 9.5482H35.0633C34.6715 8.82171 34.1818 8.09522 33.5942 7.36872H29.8724C30.46 6.64223 31.0477 6.01952 31.8312 5.29303C28.5012 1.97191 23.9958 0 19.0008 0C8.61891 0.311355 0 9.13307 0 20.238C0 31.343 8.52097 40.4761 19.0987 40.4761C24.0938 40.4761 28.5012 38.4004 31.9292 35.1831C32.6148 34.5604 33.2024 33.8339 33.888 33.0036H29.9703C29.4806 32.3809 28.9909 31.6544 28.5991 30.9279H35.2592C35.651 30.3052 36.0427 29.5787 36.3366 28.7484H27.4238C27.13 28.1257 26.8362 27.3992 26.6403 26.5689H37.1201C37.7078 24.7008 38.0995 22.6251 38.0995 20.3418Z" fill="#C8191C"/>
<path d="M25.8567 25.4283L26.1506 23.5602C26.0526 23.5602 25.8567 23.664 25.6608 23.664C24.9752 23.664 24.8773 23.2488 24.9752 23.0413L25.5629 19.305H26.6403L26.9341 17.2293H25.9547L26.1506 15.9839H24.0938C24.0938 15.9839 22.9185 23.0413 22.9185 23.8715C22.9185 25.117 23.6041 25.7397 24.5835 25.7397C25.1711 25.7397 25.6608 25.5321 25.8567 25.4283Z" fill="white"/>
<path d="M26.5417 22.0025C26.5417 25.0123 28.5006 25.7388 30.0677 25.7388C31.5368 25.7388 32.2224 25.4274 32.2224 25.4274L32.6142 23.3517C32.6142 23.3517 31.5368 23.8706 30.4594 23.8706C28.2068 23.8706 28.5985 22.1063 28.5985 22.1063H32.7121C32.7121 22.1063 33.0059 20.7571 33.0059 20.1344C33.0059 18.7852 32.3203 17.0208 30.0677 17.0208C28.1088 16.9171 26.5417 19.3041 26.5417 22.0025ZM30.0677 18.889C31.145 18.889 30.9491 20.2382 30.9491 20.342H28.6965C28.7944 20.2382 28.9903 18.889 30.0677 18.889Z" fill="white"/>
<path d="M42.8986 25.4281L43.2904 23.041C43.2904 23.041 42.311 23.5599 41.5274 23.5599C40.1562 23.5599 39.4706 22.4183 39.4706 21.0691C39.4706 18.4745 40.646 17.1253 42.1151 17.1253C43.0945 17.1253 43.976 17.748 43.976 17.748L44.2698 15.4647C44.2698 15.4647 43.0945 14.9458 41.9192 14.9458C39.5686 14.9458 37.3159 17.1253 37.3159 21.1729C37.3159 23.8713 38.4912 25.6356 40.9398 25.6356C41.8213 25.7394 42.8986 25.4281 42.8986 25.4281Z" fill="white"/>
<path d="M14.7895 16.917C13.4183 16.917 12.3409 17.3321 12.3409 17.3321L12.0471 19.2003C12.0471 19.2003 12.9286 18.7851 14.2998 18.7851C14.9854 18.7851 15.573 18.8889 15.573 19.5116C15.573 19.9268 15.4751 20.0305 15.4751 20.0305H14.5936C12.8306 20.0305 10.9697 20.757 10.9697 23.2479C10.9697 25.2198 12.145 25.6349 12.9286 25.6349C14.2998 25.6349 14.9854 24.7009 15.0833 24.7009L14.9854 25.5311H16.6504L17.4339 19.6154C17.4339 17.0208 15.4751 16.917 14.7895 16.917ZM15.1812 21.6911C15.1812 22.0024 14.9854 23.7668 13.8101 23.7668C13.2224 23.7668 13.0265 23.2479 13.0265 22.9365C13.0265 22.4176 13.3203 21.6911 14.8874 21.6911C15.0833 21.6911 15.1812 21.6911 15.1812 21.6911Z" fill="white"/>
<path d="M19.3922 25.6347C19.8819 25.6347 22.4284 25.7385 22.4284 22.8325C22.4284 20.1341 19.9798 20.653 19.9798 19.6152C19.9798 19.0963 20.3716 18.8887 21.0572 18.8887C21.351 18.8887 22.4284 18.9925 22.4284 18.9925L22.7222 17.0206C22.7222 17.0206 22.0366 16.813 20.7634 16.813C19.2942 16.813 17.7271 17.4357 17.7271 19.6152C17.7271 22.106 20.2736 21.8984 20.2736 22.8325C20.2736 23.4552 19.588 23.559 19.0983 23.559C18.2169 23.559 17.2374 23.2476 17.2374 23.2476L16.9436 25.2196C17.1395 25.4271 17.7271 25.6347 19.3922 25.6347Z" fill="white"/>
<path d="M59.7449 15.2568L59.3531 18.1628C59.3531 18.1628 58.5696 17.125 57.3943 17.125C55.5334 17.125 53.9663 19.512 53.9663 22.3142C53.9663 24.0785 54.7498 25.8429 56.5128 25.8429C57.6881 25.8429 58.4717 25.0126 58.4717 25.0126L58.3737 25.7391H60.4305L61.8996 15.4644L59.7449 15.2568ZM58.7655 20.8612C58.7655 22.0029 58.2758 23.5596 57.1005 23.5596C56.4149 23.5596 56.0231 22.9369 56.0231 21.7953C56.0231 20.0309 56.7087 18.9931 57.6881 18.9931C58.3737 19.0969 58.7655 19.6158 58.7655 20.8612Z" fill="white"/>
<path d="M3.72203 25.5315L4.89734 17.8515L5.09322 25.5315H6.46441L9.10885 17.8515L8.03149 25.5315H10.1862L11.8512 15.2568H8.5212L6.46441 21.5877L6.36647 15.2568H3.4282L1.76318 25.5315H3.72203Z" fill="white"/>
<path d="M35.0635 25.5316C35.6511 22.0029 35.7491 19.0969 37.2182 19.6158C37.4141 18.2666 37.7079 17.6439 37.9038 17.125H37.512C36.6305 17.125 35.847 18.3704 35.847 18.3704L36.0429 17.2288H34.084L32.8108 25.5316H35.0635Z" fill="white"/>
<path d="M47.5993 16.917C46.2281 16.917 45.1507 17.3321 45.1507 17.3321L44.8569 19.2003C44.8569 19.2003 45.7384 18.7851 47.1096 18.7851C47.7952 18.7851 48.3828 18.8889 48.3828 19.5116C48.3828 19.9268 48.2849 20.0305 48.2849 20.0305H47.4034C45.6404 20.0305 43.7795 20.757 43.7795 23.2479C43.7795 25.2198 44.9548 25.6349 45.7384 25.6349C47.1096 25.6349 47.7952 24.7009 47.8931 24.7009L47.7952 25.5311H49.6561L50.4396 19.6154C50.4396 17.0208 48.2849 16.917 47.5993 16.917ZM48.089 21.6911C48.089 22.0024 47.8931 23.7668 46.7178 23.7668C46.1302 23.7668 45.9343 23.2479 45.9343 22.9365C45.9343 22.4176 46.2281 21.6911 47.7952 21.6911C47.9911 21.6911 47.9911 21.6911 48.089 21.6911Z" fill="white"/>
<path d="M52.0073 25.5316C52.595 22.0029 52.6929 19.0969 54.162 19.6158C54.3579 18.2666 54.6518 17.6439 54.8476 17.125H54.4559C53.5744 17.125 52.7908 18.3704 52.7908 18.3704L52.9867 17.2288H51.0279L49.7546 25.5316H52.0073Z" fill="white"/>
</svg>
