<svg width="67" height="25" viewBox="0 0 67 25" fill="none" xmlns="http://www.w3.org/2000/svg">
<path d="M3.9269 10.5631C3.93054 10.5442 3.93415 10.5255 3.93775 10.5068C4.08955 10.6934 4.263 10.8533 4.45685 10.987C4.89754 11.2908 5.42058 11.4432 5.98588 11.4885C7.72158 11.6396 9.01901 10.8239 9.84063 9.51681C10.6512 8.22737 11.0027 6.4624 10.9216 4.64508C10.8509 2.72497 9.92042 0.906229 8.02815 0.679666C7.13724 0.560766 6.38793 0.701076 5.76369 1.03377C5.56082 1.14189 5.37385 1.26889 5.20139 1.41099C5.20797 1.37047 5.2145 1.32927 5.22094 1.28728L5.28488 0.870293H4.86302H4.86024H4.85746H4.85467H4.85189H4.84911H4.84632H4.84354H4.84075H4.83797H4.83518H4.83239H4.8296H4.82682H4.82403H4.82124H4.81845H4.81566H4.81287H4.81008H4.80729H4.80449H4.8017H4.79891H4.79611H4.79332H4.79053H4.78773H4.78494H4.78214H4.77934H4.77655H4.77375H4.77095H4.76815H4.76535H4.76255H4.75975H4.75695H4.75415H4.75135H4.74855H4.74575H4.74294H4.74014H4.73734H4.73453H4.73173H4.72892H4.72612H4.72331H4.72051H4.7177H4.71489H4.71208H4.70928H4.70647H4.70366H4.70085H4.69804H4.69523H4.69242H4.6896H4.68679H4.68398H4.68117H4.67835H4.67554H4.67273H4.66991H4.6671H4.66428H4.66146H4.65865H4.65583H4.65301H4.6502H4.64738H4.64456H4.64174H4.63892H4.6361H4.63328H4.63046H4.62764H4.62481H4.62199H4.61917H4.61635H4.61352H4.6107H4.60788H4.60505H4.60223H4.5994H4.59657H4.59375H4.59092H4.58809H4.58527H4.58244H4.57961H4.57678H4.57395H4.57112H4.56829H4.56546H4.56263H4.5598H4.55697H4.55413H4.5513H4.54847H4.54563H4.5428H4.53997H4.53713H4.5343H4.53146H4.52863H4.52579H4.52295H4.52012H4.51728H4.51444H4.5116H4.50876H4.50592H4.50308H4.50024H4.4974H4.49456H4.49172H4.48888H4.48604H4.4832H4.48036H4.47751H4.47467H4.47183H4.46898H4.46614H4.46329H4.46045H4.4576H4.45476H4.45191H4.44906H4.44622H4.44337H4.44052H4.43767H4.43482H4.43198H4.42913H4.42628H4.42343H4.42058H4.41773H4.41488H4.41202H4.40917H4.40632H4.40347H4.40062H4.39776H4.39491H4.39206H4.3892H4.38635H4.38349H4.38064H4.37778H4.37493H4.37207H4.36921H4.36636H4.3635H4.36064H4.35778H4.35492H4.35207H4.34921H4.34635H4.34349H4.34063H4.33777H4.33491H4.33205H4.32919H4.32632H4.32346H4.3206H4.31774H4.31487H4.31201H4.30915H4.30628H4.30342H4.30056H4.29769H4.29483H4.29196H4.28909H4.28623H4.28336H4.2805H4.27763H4.27476H4.27189H4.26903H4.26616H4.26329H4.26042H4.25755H4.25468H4.25181H4.24894H4.24607H4.2432H4.24033H4.23746H4.23459H4.23172H4.22884H4.22597H4.2231H4.22023H4.21735H4.21448H4.21161H4.20873H4.20586H4.20298H4.20011H4.19723H4.19436H4.19148H4.18861H4.18573H4.18285H4.17998H4.1771H4.17422H4.17134H4.16847H4.16559H4.16271H4.15983H4.15695H4.15407H4.15119H4.14831H4.14543H4.14255H4.13967H4.13679H4.13391H4.13103H4.12815H4.12526H4.12238H4.1195H4.11662H4.11373H4.11085H4.10797H4.10508H4.1022H4.09932H4.09643H4.09355H4.09066H4.08778H4.08489H4.08201H4.07912H4.07623H4.07335H4.07046H4.06757H4.06469H4.0618H4.05891H4.05603H4.05314H4.05025H4.04736H4.04447H4.04158H4.03869H4.0358H4.03291H4.03003H4.02714H4.02425H4.02135H4.01846H4.01557H4.01268H4.00979H4.0069H4.00401H4.00112H3.99822H3.99533H3.99244H3.98955H3.98665H3.98376H3.98087H3.97797H3.97508H3.97218H3.96929H3.9664H3.9635H3.96061H3.95771H3.95482H3.95192H3.94903H3.94613H3.94323H3.94034H3.93744H3.93455H3.93165H3.92875H3.92585H3.92296H3.92006H3.91716H3.91426H3.91137H3.90847H3.90557H3.90267H3.89977H3.89687H3.89397H3.89108H3.88818H3.88528H3.88238H3.87948H3.87658H3.87368H3.87078H3.86788H3.86497H3.86207H3.85917H3.85627H3.85337H3.85047H3.84757H3.84466H3.84176H3.83886H3.83596H3.83306H3.83015H3.82725H3.82435H3.82144H3.81854H3.81564H3.81273H3.80983H3.80693H3.80402H3.80112H3.79821H3.79531H3.7924H3.7895H3.7866H3.78369H3.78079H3.77788H3.77497H3.77207H3.76916H3.76626H3.76335H3.76045H3.75754H3.75463H3.75173H3.74882H3.74591H3.74301H3.7401H3.73719H3.73429H3.73138H3.72847H3.72556H3.72266H3.71975H3.71684H3.71393H3.71102H3.70812H3.70521H3.7023H3.69939H3.69648H3.69357H3.69067H3.68776H3.68485H3.68194H3.67903H3.67612H3.67321H3.6703H3.66739H3.66448H3.66157H3.65866H3.65575H3.65284H3.64993H3.64702H3.64411H3.6412H3.63829H3.63538H3.63247H3.62956H3.62665H3.62374H3.62083H3.61791H3.615H3.61209H3.60918H3.60627H3.60336H3.60045H3.59753H3.59462H3.59171H3.5888H3.58589H3.58298H3.58006H3.57715H3.57424H3.57133H3.56842H3.5655H3.56259H3.55968H3.55677H3.55385H3.55094H3.54803H3.54511H3.5422H3.53929H3.53638H3.53346H3.53055H3.52764H3.52472H3.52181H3.5189H3.51599H3.51307H3.51016H3.50725H3.50433H3.50142H3.49851H3.49559H3.49268H3.48976H3.48685H3.48394H3.48102H3.47811H3.4752H3.47228H3.46937H3.46646H3.46354H3.46063H3.45771H3.4548H3.45189H3.44897H3.44606H3.44314H3.44023H3.43732H3.4344H3.43149H3.42857H3.42566H3.42275H3.41983H3.41692H3.414H3.41109H3.40818H3.40526H3.40235H3.39943H3.39652H3.39361H3.06395L3.03309 1.1985C2.80841 3.58852 2.43746 5.87113 2.05053 8.12261C1.99371 8.45324 1.93653 8.78331 1.87941 9.11299C1.54821 11.0246 1.21929 12.9231 0.977174 14.8414L0.925748 15.2488H1.33643H1.33934H1.34226H1.34517H1.34809H1.351H1.35392H1.35684H1.35976H1.36267H1.36559H1.36851H1.37143H1.37435H1.37727H1.38019H1.38312H1.38604H1.38896H1.39188H1.39481H1.39773H1.40066H1.40358H1.40651H1.40943H1.41236H1.41529H1.41822H1.42114H1.42407H1.427H1.42993H1.43286H1.43579H1.43872H1.44165H1.44458H1.44752H1.45045H1.45338H1.45632H1.45925H1.46218H1.46512H1.46805H1.47099H1.47393H1.47686H1.4798H1.48274H1.48567H1.48861H1.49155H1.49449H1.49743H1.50037H1.50331H1.50625H1.50919H1.51213H1.51507H1.51801H1.52096H1.5239H1.52684H1.52979H1.53273H1.53568H1.53862H1.54157H1.54451H1.54746H1.5504H1.55335H1.5563H1.55924H1.56219H1.56514H1.56809H1.57104H1.57399H1.57694H1.57989H1.58284H1.58579H1.58874H1.59169H1.59464H1.59759H1.60055H1.6035H1.60645H1.6094H1.61236H1.61531H1.61827H1.62122H1.62418H1.62713H1.63009H1.63304H1.636H1.63896H1.64191H1.64487H1.64783H1.65078H1.65374H1.6567H1.65966H1.66262H1.66558H1.66854H1.6715H1.67446H1.67742H1.68038H1.68334H1.6863H1.68926H1.69222H1.69519H1.69815H1.70111H1.70407H1.70704H1.71H1.71296H1.71593H1.71889H1.72186H1.72482H1.72779H1.73075H1.73372H1.73668H1.73965H1.74261H1.74558H1.74855H1.75151H1.75448H1.75745H1.76042H1.76338H1.76635H1.76932H1.77229H1.77526H1.77823H1.78119H1.78416H1.78713H1.7901H1.79307H1.79604H1.79901H1.80198H1.80495H1.80793H1.8109H1.81387H1.81684H1.81981H1.82278H1.82576H1.82873H1.8317H1.83467H1.83765H1.84062H1.84359H1.84656H1.84954H1.85251H1.85549H1.85846H1.86143H1.86441H1.86738H1.87036H1.87333H1.87631H1.87928H1.88226H1.88523H1.88821H1.89118H1.89416H1.89713H1.90011H1.90309H1.90606H1.90904H1.91202H1.91499H1.91797H1.92095H1.92392H1.9269H1.92988H1.93285H1.93583H1.93881H1.94179H1.94477H1.94774H1.95072H1.9537H1.95668H1.95966H1.96263H1.96561H1.96859H1.97157H1.97455H1.97753H1.98051H1.98348H1.98646H1.98944H1.99242H1.9954H1.99838H2.00136H2.00434H2.00732H2.0103H2.01328H2.01626H2.01924H2.02222H2.0252H2.02818H2.03116H2.03414H2.03712H2.0401H2.04308H2.04606H2.04904H2.05202H2.055H2.05798H2.06096H2.06394H2.06692H2.0699H2.07288H2.07586H2.07884H2.08182H2.0848H2.08778H2.09076H2.09374H2.09672H2.0997H2.10268H2.10566H2.10864H2.11162H2.1146H2.11758H2.12056H2.12354H2.12652H2.1295H2.13248H2.13546H2.13844H2.14142H2.1444H2.14738H2.15036H2.15334H2.15632H2.1593H2.16228H2.16526H2.16824H2.17122H2.1742H2.17718H2.18016H2.18314H2.18612H2.1891H2.19208H2.19506H2.19804H2.20102H2.20399H2.20697H2.20995H2.21293H2.21591H2.21889H2.22187H2.22485H2.22782H2.2308H2.23378H2.23676H2.23974H2.24271H2.24569H2.24867H2.25165H2.25462H2.2576H2.26058H2.26356H2.26653H2.26951H2.27249H2.27546H2.27844H2.28142H2.28439H2.28737H2.29034H2.29332H2.2963H2.29927H2.30225H2.30522H2.3082H2.31117H2.31415H2.31712H2.3201H2.32307H2.32605H2.32902H2.33199H2.33497H2.33794H2.34091H2.34389H2.34686H2.34983H2.35281H2.35578H2.35875H2.36172H2.3647H2.36767H2.37064H2.37361H2.37658H2.37955H2.38252H2.3855H2.38847H2.39144H2.39441H2.39738H2.40035H2.40332H2.40628H2.40925H2.41222H2.41519H2.41816H2.42113H2.4241H2.42706H2.43003H2.433H2.43597H2.43893H2.4419H2.44487H2.44783H2.4508H2.45376H2.45673H2.45969H2.46266H2.46562H2.46859H2.47155H2.47452H2.47748H2.48044H2.48341H2.48637H2.48933H2.49229H2.49526H2.49822H2.50118H2.50414H2.5071H2.51006H2.51302H2.51598H2.51894H2.5219H2.52486H2.52782H2.53078H2.53374H2.53669H2.53965H2.54261H2.54557H2.54852H2.55148H2.55444H2.55739H2.56035H2.5633H2.56626H2.56921H2.57217H2.57512H2.57807H2.58103H2.58398H2.58693H2.58989H2.59284H2.59579H2.59874H2.60169H2.60464H2.60759H2.61054H2.61349H2.61644H2.61939H2.62234H2.62529H2.62823H2.63118H2.63413H2.63708H2.64002H2.64297H2.64591H2.64886H2.6518H2.65475H2.65769H2.66064H2.66358H2.66652H2.66946H2.67241H2.67535H2.67829H2.68123H2.68417H2.68711H2.69005H2.69299H2.69593H2.69887H2.70181H2.70474H2.70768H2.71062H2.71355H2.71649H2.71943H2.72236H2.7253H2.72823H2.73116H2.7341H2.73703H2.73996H2.74289H2.74583H2.74876H2.75169H2.75462H2.75755H2.76048H2.76341H2.76633H2.76926H2.77219H2.77512H2.77804H2.78097H2.7839H2.78682H2.78975H2.79267H2.79559H2.79852H2.80144H2.80436H2.80728H2.81021H2.81313H2.81605H2.81897H2.82189H2.82481H2.82772H2.83064H2.83356H2.83648H2.83939H2.84231H2.84522H2.84814H2.85105H3.15159L3.20696 14.9534C3.3518 14.1806 3.47609 13.3646 3.59852 12.5607C3.68526 11.9913 3.77107 11.4279 3.8626 10.8902C3.88555 10.7778 3.90651 10.669 3.9269 10.5631ZM5.08393 8.83669L5.08313 8.83583C4.45307 8.15746 4.36437 6.95517 4.65581 5.72816C4.79809 5.12914 5.02469 4.55609 5.29138 4.08801C5.56188 3.61326 5.8554 3.27831 6.11557 3.11612C6.27287 3.02015 6.4123 2.97346 6.7865 2.94804L6.80057 2.94708L6.81452 2.94504C7.29942 2.87389 7.78166 3.00008 8.06361 3.28291C8.27523 3.50099 8.42393 3.84206 8.50078 4.28886C8.57711 4.73266 8.57684 5.24891 8.51856 5.77755C8.40076 6.84608 8.05623 7.88308 7.72554 8.3855C7.44788 8.80695 6.97275 9.1441 6.4702 9.25767C5.98183 9.36804 5.48141 9.26745 5.08393 8.83669Z" fill="#030000" stroke="white" stroke-width="0.724203"/>
<path d="M17.5448 11.295H17.8688L17.9047 10.9731C18.0304 9.84563 18.1953 8.8138 18.3644 7.75641C18.3761 7.68273 18.3879 7.60892 18.3997 7.53496L18.3999 7.53363C18.4386 7.28524 18.4839 7.03002 18.5301 6.76939C18.6919 5.85672 18.8656 4.8776 18.8106 3.89213L18.8105 3.89098C18.7616 3.06061 18.5097 2.39563 18.0981 1.8894C17.6875 1.38437 17.1377 1.06155 16.5322 0.880761C15.3331 0.522712 13.8805 0.708821 12.6689 1.16908L12.4621 1.24762L12.4376 1.46745C12.4046 1.76314 12.3605 2.05319 12.3152 2.35142L12.3147 2.35471C12.2698 2.64971 12.2236 2.95283 12.1889 3.26407L12.0925 4.12864L12.7739 3.58783C13.0465 3.37151 13.4732 3.16858 13.9621 3.03875C14.4491 2.90942 14.9664 2.86104 15.4124 2.92654C15.8593 2.99217 16.1962 3.16479 16.3932 3.4407C16.5598 3.6742 16.6642 4.03515 16.5887 4.59086C15.5207 4.56193 14.43 4.58558 13.4798 4.81066C12.4302 5.05929 11.5042 5.56594 10.9858 6.56151C10.5745 7.31831 10.5584 8.25998 10.6056 8.80805C10.7618 10.6221 12.4025 11.7001 14.1306 11.4858L14.1318 11.4856C14.7939 11.4013 15.3356 11.0813 15.7654 10.68C15.7561 10.7492 15.7472 10.8188 15.7386 10.8888L15.6888 11.295H16.098H16.1009H16.1038H16.1067H16.1097H16.1126H16.1155H16.1184H16.1213H16.1242H16.1271H16.13H16.1329H16.1358H16.1388H16.1417H16.1446H16.1475H16.1504H16.1533H16.1562H16.1591H16.162H16.1649H16.1678H16.1707H16.1736H16.1765H16.1794H16.1823H16.1852H16.1881H16.191H16.1939H16.1968H16.1997H16.2026H16.2055H16.2084H16.2113H16.2142H16.2171H16.22H16.2228H16.2257H16.2286H16.2315H16.2344H16.2373H16.2402H16.2431H16.246H16.2489H16.2518H16.2546H16.2575H16.2604H16.2633H16.2662H16.2691H16.272H16.2748H16.2777H16.2806H16.2835H16.2864H16.2893H16.2921H16.295H16.2979H16.3008H16.3037H16.3065H16.3094H16.3123H16.3152H16.3181H16.3209H16.3238H16.3267H16.3296H16.3324H16.3353H16.3382H16.3411H16.3439H16.3468H16.3497H16.3526H16.3554H16.3583H16.3612H16.364H16.3669H16.3698H16.3727H16.3755H16.3784H16.3813H16.3841H16.387H16.3899H16.3927H16.3956H16.3985H16.4013H16.4042H16.4071H16.4099H16.4128H16.4157H16.4185H16.4214H16.4242H16.4271H16.43H16.4328H16.4357H16.4385H16.4414H16.4443H16.4471H16.45H16.4528H16.4557H16.4586H16.4614H16.4643H16.4671H16.47H16.4728H16.4757H16.4785H16.4814H16.4843H16.4871H16.49H16.4928H16.4957H16.4985H16.5014H16.5042H16.5071H16.5099H16.5128H16.5156H16.5185H16.5213H16.5242H16.527H16.5299H16.5327H16.5356H16.5384H16.5413H16.5441H16.5469H16.5498H16.5526H16.5555H16.5583H16.5612H16.564H16.5669H16.5697H16.5725H16.5754H16.5782H16.5811H16.5839H16.5868H16.5896H16.5924H16.5953H16.5981H16.601H16.6038H16.6066H16.6095H16.6123H16.6151H16.618H16.6208H16.6237H16.6265H16.6293H16.6322H16.635H16.6378H16.6407H16.6435H16.6463H16.6492H16.652H16.6548H16.6577H16.6605H16.6633H16.6662H16.669H16.6718H16.6747H16.6775H16.6803H16.6831H16.686H16.6888H16.6916H16.6945H16.6973H16.7001H16.7029H16.7058H16.7086H16.7114H16.7143H16.7171H16.7199H16.7227H16.7256H16.7284H16.7312H16.734H16.7369H16.7397H16.7425H16.7453H16.7481H16.751H16.7538H16.7566H16.7594H16.7623H16.7651H16.7679H16.7707H16.7735H16.7764H16.7792H16.782H16.7848H16.7876H16.7905H16.7933H16.7961H16.7989H16.8017H16.8045H16.8074H16.8102H16.813H16.8158H16.8186H16.8214H16.8243H16.8271H16.8299H16.8327H16.8355H16.8383H16.8411H16.844H16.8468H16.8496H16.8524H16.8552H16.858H16.8608H16.8636H16.8665H16.8693H16.8721H16.8749H16.8777H16.8805H16.8833H16.8861H16.8889H16.8918H16.8946H16.8974H16.9002H16.903H16.9058H16.9086H16.9114H16.9142H16.917H16.9198H16.9226H16.9254H16.9283H16.9311H16.9339H16.9367H16.9395H16.9423H16.9451H16.9479H16.9507H16.9535H16.9563H16.9591H16.9619H16.9647H16.9675H16.9703H16.9731H16.9759H16.9787H16.9815H16.9843H16.9871H16.9899H16.9927H16.9955H16.9983H17.0011H17.0039H17.0067H17.0095H17.0123H17.0151H17.0179H17.0207H17.0235H17.0263H17.0291H17.0319H17.0347H17.0375H17.0403H17.0431H17.0459H17.0487H17.0515H17.0543H17.0571H17.0599H17.0627H17.0655H17.0683H17.0711H17.0739H17.0767H17.0795H17.0823H17.0851H17.0879H17.0907H17.0935H17.0963H17.0991H17.1019H17.1047H17.1074H17.1102H17.113H17.1158H17.1186H17.1214H17.1242H17.127H17.1298H17.1326H17.1354H17.1382H17.141H17.1438H17.1465H17.1493H17.1521H17.1549H17.1577H17.1605H17.1633H17.1661H17.1689H17.1717H17.1745H17.1772H17.18H17.1828H17.1856H17.1884H17.1912H17.194H17.1968H17.1996H17.2024H17.2051H17.2079H17.2107H17.2135H17.2163H17.2191H17.2219H17.2247H17.2275H17.2302H17.233H17.2358H17.2386H17.2414H17.2442H17.247H17.2498H17.2525H17.2553H17.2581H17.2609H17.2637H17.2665H17.2693H17.2721H17.2748H17.2776H17.2804H17.2832H17.286H17.2888H17.2916H17.2943H17.2971H17.2999H17.3027H17.3055H17.3083H17.3111H17.3138H17.3166H17.3194H17.3222H17.325H17.3278H17.3306H17.3333H17.3361H17.3389H17.3417H17.3445H17.3473H17.35H17.3528H17.3556H17.3584H17.3612H17.364H17.3667H17.3695H17.3723H17.3751H17.3779H17.3807H17.3834H17.3862H17.389H17.3918H17.3946H17.3974H17.4001H17.4029H17.4057H17.4085H17.4113H17.4141H17.4168H17.4196H17.4224H17.4252H17.428H17.4308H17.4335H17.4363H17.4391H17.4419H17.4447H17.4474H17.4502H17.453H17.4558H17.4586H17.4614H17.4641H17.4669H17.4697H17.4725H17.4753H17.4781H17.4808H17.4836H17.4864H17.4892H17.492H17.4947H17.4975H17.5003H17.5031H17.5059H17.5087H17.5114H17.5142H17.517H17.5198H17.5226H17.5253H17.5281H17.5309H17.5337H17.5365H17.5393H17.542H17.5448ZM12.9781 8.39727L12.9781 8.39684C12.9542 7.98193 13.0564 7.68376 13.2254 7.45972C13.3989 7.22966 13.6654 7.04851 14.0152 6.91416C14.6175 6.68288 15.4008 6.61523 16.1683 6.63346C16.0339 7.30451 15.8118 7.9369 15.4915 8.41718C15.1158 8.98073 14.626 9.31057 13.9792 9.29943L13.9792 9.29938H13.973C13.5248 9.29938 13.0098 8.95875 12.9781 8.39727Z" fill="#030000" stroke="white" stroke-width="0.724203"/>
<path d="M21.3855 1.21241L21.3439 0.897664H21.0265H21.0234H21.0204H21.0173H21.0143H21.0112H21.0082H21.0051H21.0021H20.999H20.996H20.9929H20.9899H20.9868H20.9838H20.9807H20.9777H20.9746H20.9715H20.9685H20.9654H20.9624H20.9593H20.9563H20.9532H20.9501H20.9471H20.944H20.941H20.9379H20.9348H20.9318H20.9287H20.9257H20.9226H20.9195H20.9165H20.9134H20.9103H20.9073H20.9042H20.9011H20.8981H20.895H20.8919H20.8889H20.8858H20.8827H20.8797H20.8766H20.8735H20.8704H20.8674H20.8643H20.8612H20.8582H20.8551H20.852H20.8489H20.8459H20.8428H20.8397H20.8366H20.8335H20.8305H20.8274H20.8243H20.8212H20.8182H20.8151H20.812H20.8089H20.8058H20.8028H20.7997H20.7966H20.7935H20.7904H20.7873H20.7843H20.7812H20.7781H20.775H20.7719H20.7688H20.7657H20.7627H20.7596H20.7565H20.7534H20.7503H20.7472H20.7441H20.741H20.7379H20.7349H20.7318H20.7287H20.7256H20.7225H20.7194H20.7163H20.7132H20.7101H20.707H20.7039H20.7008H20.6977H20.6946H20.6915H20.6884H20.6853H20.6822H20.6791H20.676H20.6729H20.6698H20.6667H20.6636H20.6605H20.6574H20.6543H20.6512H20.6481H20.645H20.6419H20.6388H20.6357H20.6326H20.6295H20.6264H20.6233H20.6202H20.6171H20.614H20.6109H20.6078H20.6047H20.6016H20.5984H20.5953H20.5922H20.5891H20.586H20.5829H20.5798H20.5767H20.5736H20.5705H20.5673H20.5642H20.5611H20.558H20.5549H20.5518H20.5487H20.5455H20.5424H20.5393H20.5362H20.5331H20.53H20.5268H20.5237H20.5206H20.5175H20.5144H20.5113H20.5081H20.505H20.5019H20.4988H20.4957H20.4925H20.4894H20.4863H20.4832H20.4801H20.4769H20.4738H20.4707H20.4676H20.4644H20.4613H20.4582H20.4551H20.4519H20.4488H20.4457H20.4426H20.4394H20.4363H20.4332H20.4301H20.4269H20.4238H20.4207H20.4175H20.4144H20.4113H20.4082H20.405H20.4019H20.3988H20.3956H20.3925H20.3894H20.3862H20.3831H20.38H20.3768H20.3737H20.3706H20.3674H20.3643H20.3612H20.358H20.3549H20.3518H20.3486H20.3455H20.3424H20.3392H20.3361H20.3329H20.3298H20.3267H20.3235H20.3204H20.3173H20.3141H20.311H20.3078H20.3047H20.3016H20.2984H20.2953H20.2921H20.289H20.2859H20.2827H20.2796H20.2764H20.2733H20.2701H20.267H20.2639H20.2607H20.2576H20.2544H20.2513H20.2481H20.245H20.2419H20.2387H20.2356H20.2324H20.2293H20.2261H20.223H20.2198H20.2167H20.2135H20.2104H20.2072H20.2041H20.2009H20.1978H20.1946H20.1915H20.1883H20.1852H20.182H20.1789H20.1757H20.1726H20.1694H20.1663H20.1631H20.16H20.1568H20.1537H20.1505H20.1474H20.1442H20.1411H20.1379H20.1348H20.1316H20.1285H20.1253H20.1222H20.119H20.1158H20.1127H20.1095H20.1064H20.1032H20.1001H20.0969H20.0938H20.0906H20.0874H20.0843H20.0811H20.078H20.0748H20.0717H20.0685H20.0653H20.0622H20.059H20.0559H20.0527H20.0496H20.0464H20.0432H20.0401H20.0369H20.0338H20.0306H20.0274H20.0243H20.0211H20.0179H20.0148H20.0116H20.0085H20.0053H20.0021H19.999H19.9958H19.9927H19.9895H19.9863H19.9832H19.98H19.9768H19.9737H19.9705H19.9673H19.9642H19.961H19.9579H19.9547H19.9515H19.9484H19.9452H19.942H19.9389H19.9357H19.9325H19.9294H19.9262H19.923H19.9199H19.9167H19.9135H19.9104H19.9072H19.904H19.9009H19.8977H19.8945H19.8914H19.8882H19.885H19.8819H19.8787H19.8755H19.8724H19.8692H19.866H19.8628H19.8597H19.8565H19.8533H19.8502H19.847H19.8438H19.8407H19.8375H19.8343H19.8311H19.828H19.8248H19.8216H19.8185H19.8153H19.8121H19.8089H19.8058H19.8026H19.7994H19.7963H19.7931H19.7899H19.7867H19.7836H19.7804H19.7772H19.7741H19.7709H19.7677H19.7645H19.7614H19.7582H19.755H19.7518H19.7487H19.7455H19.7423H19.7391H19.736H19.7328H19.7296H19.7264H19.7233H19.7201H19.7169H19.7138H19.7106H19.7074H19.7042H19.7011H19.6979H19.6947H19.6915H19.6884H19.6852H19.682H19.6788H19.6756H19.6725H19.6693H19.6661H19.6629H19.6598H19.6566H19.6534H19.6502H19.6471H19.6439H19.6407H19.6375H19.6344H19.6312H19.628H19.6248H19.6216H19.6185H19.6153H19.6121H19.6089H19.6058H19.6026H19.5994H19.5962H19.5931H19.5899H19.5867H19.5835H19.5803H19.5772H19.574H19.5708H19.5676H19.5645H19.5613H19.5581H19.5549H19.5517H19.5486H19.5454H19.5422H19.539H19.5358H19.5327H19.5295H19.5263H19.5231H19.52H19.5168H19.5136H19.5104H19.5072H19.5041H19.5009H19.4977H19.4945H19.4913H19.4882H19.485H19.4818H19.4786H19.4755H19.4723H19.4691H19.4659H19.4627H19.4596H19.4564H19.4532H19.45H19.4468H19.4437H19.4405H19.4373H19.4341H19.4309H19.4278H19.4246H19.4214H19.1783L19.0863 1.12271L19.0813 1.13413L19.0808 1.13548C19.0785 1.14071 19.0743 1.15017 19.0704 1.15985C19.0622 1.17987 19.0448 1.22386 19.0372 1.27996C19.0286 1.34299 19.0333 1.41094 19.057 1.47923C19.0617 1.49303 19.067 1.50615 19.0727 1.51861C19.3154 3.23978 19.5723 4.96392 19.8285 6.68317C20.0628 8.2558 20.2965 9.82432 20.5182 11.3827C20.3239 11.8373 20.0963 12.3099 19.8072 12.675C19.5012 13.0616 19.1652 13.2805 18.7658 13.2805C18.7094 13.2805 18.643 13.2613 18.5089 13.2183C18.504 13.2167 18.4988 13.2151 18.4934 13.2133C18.3899 13.1799 18.2044 13.1201 18.0163 13.1456L17.7163 13.1864L17.7033 13.4889C17.6933 13.7208 17.6536 13.9303 17.6078 14.1717L17.6075 14.1729C17.5625 14.4102 17.5123 14.676 17.4998 14.9822L17.4877 15.2783L17.7756 15.3487C18.3286 15.484 18.9363 15.5145 19.4968 15.4274C20.0529 15.341 20.595 15.1333 20.9827 14.7613C21.3943 14.3682 21.7226 13.7924 22.0021 13.2169C22.1439 12.9251 22.2778 12.6231 22.4056 12.3326C22.418 12.3043 22.4304 12.2762 22.4427 12.2482C22.5577 11.9866 22.6676 11.7364 22.7774 11.5047C22.7776 11.5043 22.7778 11.5038 22.7779 11.5034L22.8303 11.395C24.4411 8.05781 26.1175 4.58486 27.5507 1.4087L27.7813 0.897664H27.2206H27.2173H27.214H27.2107H27.2074H27.2041H27.2008H27.1974H27.1941H27.1908H27.1875H27.1842H27.1809H27.1776H27.1743H27.171H27.1677H27.1644H27.1611H27.1578H27.1545H27.1512H27.1479H27.1446H27.1413H27.138H27.1347H27.1314H27.1281H27.1248H27.1215H27.1182H27.1149H27.1116H27.1083H27.105H27.1017H27.0984H27.0951H27.0919H27.0886H27.0853H27.082H27.0787H27.0754H27.0721H27.0688H27.0655H27.0622H27.059H27.0557H27.0524H27.0491H27.0458H27.0425H27.0392H27.036H27.0327H27.0294H27.0261H27.0228H27.0195H27.0163H27.013H27.0097H27.0064H27.0031H26.9999H26.9966H26.9933H26.99H26.9867H26.9835H26.9802H26.9769H26.9736H26.9704H26.9671H26.9638H26.9605H26.9573H26.954H26.9507H26.9474H26.9442H26.9409H26.9376H26.9344H26.9311H26.9278H26.9246H26.9213H26.918H26.9148H26.9115H26.9082H26.9049H26.9017H26.8984H26.8952H26.8919H26.8886H26.8854H26.8821H26.8788H26.8756H26.8723H26.869H26.8658H26.8625H26.8593H26.856H26.8527H26.8495H26.8462H26.843H26.8397H26.8364H26.8332H26.8299H26.8267H26.8234H26.8202H26.8169H26.8137H26.8104H26.8071H26.8039H26.8006H26.7974H26.7941H26.7909H26.7876H26.7844H26.7811H26.7779H26.7746H26.7714H26.7681H26.7649H26.7616H26.7584H26.7551H26.7519H26.7486H26.7454H26.7421H26.7389H26.7356H26.7324H26.7291H26.7259H26.7227H26.7194H26.7162H26.7129H26.7097H26.7064H26.7032H26.7H26.6967H26.6935H26.6902H26.687H26.6837H26.6805H26.6773H26.674H26.6708H26.6676H26.6643H26.6611H26.6578H26.6546H26.6514H26.6481H26.6449H26.6417H26.6384H26.6352H26.632H26.6287H26.6255H26.6222H26.619H26.6158H26.6125H26.6093H26.6061H26.6029H26.5996H26.5964H26.5932H26.5899H26.5867H26.5835H26.5802H26.577H26.5738H26.5705H26.5673H26.5641H26.5609H26.5576H26.5544H26.5512H26.548H26.5447H26.5415H26.5383H26.5351H26.5318H26.5286H26.5254H26.5222H26.5189H26.5157H26.5125H26.5093H26.506H26.5028H26.4996H26.4964H26.4932H26.4899H26.4867H26.4835H26.4803H26.4771H26.4738H26.4706H26.4674H26.4642H26.461H26.4577H26.4545H26.4513H26.4481H26.4449H26.4417H26.4384H26.4352H26.432H26.4288H26.4256H26.4224H26.4191H26.4159H26.4127H26.4095H26.4063H26.4031H26.3999H26.3966H26.3934H26.3902H26.387H26.3838H26.3806H26.3774H26.3742H26.3709H26.3677H26.3645H26.3613H26.3581H26.3549H26.3517H26.3485H26.3453H26.3421H26.3389H26.3356H26.3324H26.3292H26.326H26.3228H26.3196H26.3164H26.3132H26.31H26.3068H26.3036H26.3004H26.2972H26.294H26.2908H26.2876H26.2843H26.2811H26.2779H26.2747H26.2715H26.2683H26.2651H26.2619H26.2587H26.2555H26.2523H26.2491H26.2459H26.2427H26.2395H26.2363H26.2331H26.2299H26.2267H26.2235H26.2203H26.2171H26.2139H26.2107H26.2075H26.2043H26.2011H26.1979H26.1947H26.1915H26.1883H26.1851H26.1819H26.1787H26.1755H26.1723H26.1691H26.1659H26.1627H26.1595H26.1563H26.1531H26.15H26.1468H26.1436H26.1404H26.1372H26.134H26.1308H26.1276H26.1244H26.1212H26.118H26.1148H26.1116H26.1084H26.1052H26.102H26.0988H26.0956H26.0925H26.0893H26.0861H26.0829H26.0797H26.0765H26.0733H26.0701H26.0669H26.0637H26.0605H26.0573H26.0542H26.051H26.0478H26.0446H26.0414H26.0382H26.035H26.0318H26.0286H26.0254H26.0223H26.0191H26.0159H26.0127H26.0095H26.0063H26.0031H25.9999H25.9967H25.9936H25.9904H25.9872H25.984H25.9808H25.9776H25.9744H25.9712H25.9681H25.9649H25.9617H25.9585H25.9553H25.9521H25.9489H25.9458H25.9426H25.9394H25.9362H25.933H25.9298H25.9266H25.9235H25.9203H25.9171H25.9139H25.9107H25.9075H25.9043H25.9012H25.898H25.8948H25.8916H25.8884H25.8852H25.8821H25.8789H25.8757H25.8725H25.8693H25.8661H25.863H25.8598H25.8566H25.8534H25.8502H25.847H25.8439H25.8407H25.8375H25.8343H25.8311H25.8279H25.8248H25.8216H25.8184H25.8152H25.812H25.8089H25.8057H25.8025H25.7993H25.7961H25.7929H25.7898H25.7866H25.7834H25.7802H25.777H25.7739H25.7707H25.7675H25.7643H25.7611H25.7579H25.7548H25.7516H25.7484H25.7452H25.742H25.7389H25.7357H25.7325H25.7293H25.7261H25.723H25.7198H25.7166H25.7134H25.7102H25.7071H25.7039H25.7007H25.6975H25.6943H25.6912H25.688H25.6848H25.6816H25.6784H25.6753H25.6721H25.6689H25.6657H25.6625H25.6594H25.6562H25.653H25.6498H25.6467H25.6435H25.6403H25.6371H25.6339H25.6308H25.6276H25.6244H25.6212H25.618H25.6149H25.6117H25.6085H25.6053H25.6021H25.599H25.5958H25.5926H25.5894H25.5862H25.5831H25.5799H25.5767H25.5735H25.5704H25.3388L25.2417 1.10782C24.7322 2.21001 24.2398 3.31748 23.7487 4.42212C23.2667 5.50624 22.786 6.58763 22.2914 7.65861C22.1469 6.56315 21.9904 5.48262 21.8344 4.40654C21.68 3.34086 21.5262 2.27954 21.3855 1.21241Z" fill="#030000" stroke="white" stroke-width="0.724203"/>
<path d="M29.4499 7.22358C29.4752 7.0166 29.4959 6.79983 29.5038 6.56936L29.5154 6.2293L29.1767 6.1966C28.2945 6.11145 27.1183 6.11145 26.2361 6.1966L25.9374 6.22543L25.9103 6.52426C25.6998 8.83996 25.3119 11.0515 24.9249 13.258C24.8161 13.8786 24.7074 14.4987 24.6026 15.1207L24.6025 15.1213C24.404 16.3121 24.2139 17.4986 24.0238 18.6859C23.7578 20.3474 23.4915 22.0101 23.2013 23.6876L23.128 24.1114H23.5581H23.5645H23.5708H23.5772H23.5835H23.5899H23.5962H23.6026H23.609H23.6153H23.6217H23.628H23.6344H23.6407H23.6471H23.6534H23.6598H23.6661H23.6725H23.6788H23.6852H23.6915H23.6979H23.7042H23.7106H23.7169H23.7232H23.7296H23.7359H23.7423H23.7486H23.755H23.7613H23.7676H23.774H23.7803H23.7867H23.793H23.7993H23.8057H23.812H23.8184H23.8247H23.831H23.8374H23.8437H23.85H23.8564H23.8627H23.869H23.8754H23.8817H23.888H23.8944H23.9007H23.907H23.9134H23.9197H23.926H23.9324H23.9387H23.945H23.9513H23.9577H23.964H23.9703H23.9767H23.983H23.9893H23.9956H24.002H24.0083H24.0146H24.0209H24.0273H24.0336H24.0399H24.0462H24.0525H24.0589H24.0652H24.0715H24.0778H24.0841H24.0905H24.0968H24.1031H24.1094H24.1157H24.122H24.1284H24.1347H24.141H24.1473H24.1536H24.1599H24.1662H24.1726H24.1789H24.1852H24.1915H24.1978H24.2041H24.2104H24.2167H24.223H24.2294H24.2357H24.242H24.2483H24.2546H24.2609H24.2672H24.2735H24.2798H24.2861H24.2924H24.2987H24.305H24.3113H24.3176H24.3239H24.3302H24.3365H24.3428H24.3491H24.3554H24.3617H24.368H24.3743H24.3806H24.3869H24.3932H24.3995H24.4058H24.4121H24.4184H24.4247H24.431H24.4373H24.4436H24.4499H24.4562H24.4625H24.4688H24.4751H24.4814H24.4877H24.494H24.5003H24.5066H24.5129H24.5191H24.5254H24.5317H24.538H24.5443H24.5506H24.5569H24.5632H24.5695H24.5757H24.582H24.5883H24.5946H24.6009H24.6072H24.6135H24.6198H24.626H24.6323H24.6386H24.6449H24.6512H24.6575H24.6637H24.67H24.6763H24.6826H24.6889H24.6952H24.7014H24.7077H24.714H24.7203H24.7266H24.7328H24.7391H24.7454H24.7517H24.7579H24.7642H24.7705H24.7768H24.7831H24.7893H24.7956H24.8019H24.8082H24.8144H24.8207H24.827H24.8333H24.8395H24.8458H24.8521H24.8584H24.8646H24.8709H24.8772H24.8834H24.8897H24.896H24.9023H24.9085H24.9148H24.9211H24.9273H24.9336H24.9399H24.9461H24.9524H24.9587H24.965H24.9712H24.9775H24.9838H24.99H24.9963H25.0026H25.0088H25.0151H25.0213H25.0276H25.0339H25.0401H25.0464H25.0527H25.0589H25.0652H25.0715H25.0777H25.084H25.0902H25.0965H25.1028H25.109H25.1153H25.1216H25.1278H25.1341H25.1403H25.1466H25.1529H25.1591H25.1654H25.1716H25.1779H25.1842H25.1904H25.1967H25.2029H25.2092H25.2154H25.2217H25.228H25.2342H25.2405H25.2467H25.253H25.2592H25.2655H25.2717H25.278H25.2843H25.2905H25.2968H25.303H25.3093H25.3155H25.3218H25.328H25.3343H25.3405H25.3468H25.353H25.3593H25.3655H25.3718H25.378H25.3843H25.3905H25.3968H25.403H25.4093H25.4155H25.4218H25.428H25.4343H25.4405H25.4468H25.453H25.4593H25.4655H25.4718H25.478H25.4843H25.4905H25.4968H25.503H25.5093H25.5155H25.5217H25.528H25.5342H25.5405H25.5467H25.553H25.5592H25.5655H25.5717H25.5779H25.5842H25.5904H25.5967H25.6029H25.6092H25.6154H25.6217H25.6279H25.6341H25.6404H25.6466H25.6529H25.6591H25.6653H25.6716H25.6778H25.6841H25.6903H25.6966H25.7028H25.709H25.7153H25.7215H25.7278H25.734H25.7402H25.7465H25.7527H25.7589H25.7652H25.7714H25.7777H25.7839H25.7901H25.7964H25.8026H25.8089H25.8151H25.8213H25.8276H25.8338H25.84H25.8463H25.8525H25.8587H25.865H25.8712H25.8775H25.8837H25.8899H25.8962H25.9024H25.9086H25.9149H25.9211H25.9273H25.9336H25.9398H25.946H25.9523H25.9585H25.9647H25.971H25.9772H25.9834H25.9897H25.9959H26.0021H26.0084H26.0146H26.0208H26.0271H26.0333H26.0395H26.0458H26.052H26.0582H26.0645H26.0707H26.0769H26.0832H26.0894H26.0956H26.1019H26.1081H26.1143H26.1206H26.1268H26.133H26.1393H26.1455H26.1517H26.1579H26.1642H26.1704H26.1766H26.1829H26.1891H26.1953H26.2016H26.2078H26.214H26.2202H26.2265H26.2327H26.2389H26.2452H26.2514H26.2576H26.2638H26.2701H26.2763H26.2825H26.2888H26.295H26.3012H26.3074H26.3137H26.3199H26.3261H26.3324H26.3386H26.3448H26.351H26.3573H26.3635H26.3697H26.376H26.3822H26.3884H26.3946H26.4009H26.4071H26.4133H26.4195H26.4258H26.432H26.4382H26.4445H26.4507H26.4569H26.4631H26.4694H26.4756H26.4818H26.488H26.4943H26.5005H26.5067H26.5129H26.5192H26.5254H26.5316H26.5379H26.5441H26.5503H26.5565H26.5628H26.569H26.5752H26.5814H26.5877H26.5939H26.6001H26.6063H26.6126H26.6188H26.625H26.6312H26.6375H26.6437H26.6499H26.6561H26.6624H26.6686H26.6748H26.6811H26.6873H26.6935H26.6997H26.706H26.7122H26.7184H26.7246H26.7309H26.7371H26.7433H26.7495H26.7558H26.762H26.7682H27.0818L27.1266 23.801C27.2954 22.6312 27.4869 21.4952 27.6791 20.3544L27.6795 20.3524C27.8151 19.5479 27.951 18.7411 28.0792 17.9211C28.3202 18.2761 28.596 18.5943 28.9259 18.8497C29.5373 19.3228 30.3032 19.5566 31.2995 19.4664L31.3008 19.4662C32.9456 19.3116 34.1746 18.1152 34.9475 16.5053C35.7223 14.8917 36.0734 12.8035 35.9462 10.7092C35.8759 9.48009 35.5769 8.35159 35.0349 7.49049C34.4881 6.62159 33.6875 6.0195 32.6441 5.89349L32.6421 5.89326C31.1248 5.71866 30.1643 6.44042 29.4499 7.22358ZM29.4785 10.911L29.4785 10.9111L29.4807 10.9071C29.7919 10.3491 30.1434 10.0138 30.6903 9.9275L30.6916 9.92729C30.9285 9.88904 31.1081 9.92038 31.2482 9.98751C31.3902 10.0555 31.5176 10.1728 31.6276 10.347C31.8536 10.7051 31.9791 11.2639 31.9899 11.9248C32.0116 13.384 31.5748 14.4914 31.0331 15.0357C30.843 15.2257 30.5199 15.3934 30.1836 15.4448C29.8498 15.4958 29.5658 15.4258 29.3796 15.2332L29.3796 15.2332L29.3777 15.2312C29.011 14.8575 28.8323 14.1238 28.8679 13.2469C28.9028 12.3876 29.1401 11.5003 29.4785 10.911Z" fill="#009651" stroke="white" stroke-width="0.724203"/>
<path d="M44.3669 18.9803L44.6927 18.9911L44.7376 18.6682C44.7868 18.3135 44.8346 17.9598 44.8823 17.6073C45.0323 16.4976 45.1808 15.3994 45.3683 14.3151C45.4064 14.1095 45.4467 13.9004 45.4876 13.6885C45.7323 12.4197 45.9963 11.0508 45.9159 9.72397L45.9158 9.72269C45.8203 8.23364 45.276 7.14082 44.3468 6.46149C43.4297 5.79103 42.1967 5.56708 40.8046 5.68081C39.7713 5.74031 38.9575 6.03601 38.1289 6.40183L37.9485 6.48147L37.9176 6.67621C37.8364 7.18676 37.7846 7.71577 37.7366 8.23369C37.7316 8.2873 37.7267 8.34078 37.7218 8.3941C37.6789 8.85985 37.637 9.31448 37.5773 9.75225L37.462 10.598L38.1503 10.0931C38.4502 9.8731 38.9657 9.61272 39.5494 9.43183C40.1348 9.25043 40.7451 9.16263 41.2433 9.24593C41.5495 9.29971 41.815 9.46313 41.984 9.71576C42.1123 9.90743 42.197 10.1687 42.1859 10.5057C39.9382 10.2803 37.6846 10.6962 36.4318 12.2847C35.8458 13.0175 35.5236 14.1895 35.4971 15.3172C35.4707 16.4411 35.7358 17.6371 36.4564 18.3741L36.4564 18.3741L36.4584 18.376C37.1304 19.0526 38.1171 19.2957 39.0446 19.2283C39.9716 19.161 40.91 18.7794 41.5063 18.1137L41.5063 18.1137L41.5083 18.1115C41.511 18.1084 41.5137 18.1054 41.5164 18.1023C41.5033 18.244 41.4876 18.3789 41.467 18.5047L41.4074 18.869L41.7728 18.9215C42.1862 18.981 42.6392 18.9874 43.0791 18.984C43.2043 18.983 43.3279 18.9812 43.45 18.9795C43.7664 18.9749 44.0722 18.9706 44.3669 18.9803ZM39.7225 15.6421L39.7225 15.642L39.7137 15.6399C39.6122 15.6163 39.4533 15.5039 39.3345 15.2737C39.2216 15.055 39.1692 14.7711 39.2373 14.4755C39.3177 14.1659 39.5473 13.9204 39.9 13.7415C40.2549 13.5614 40.7061 13.4657 41.1515 13.4524C41.211 13.4524 41.2708 13.4514 41.3328 13.4503C41.4351 13.4486 41.5438 13.4468 41.6684 13.4489C41.7309 13.45 41.7914 13.4521 41.8491 13.4556C41.749 14.0172 41.5119 14.5998 41.1749 15.0298C40.7737 15.5417 40.2812 15.787 39.7225 15.6421Z" fill="#009651" stroke="white" stroke-width="0.724203"/>
<path d="M54.5931 6.78879L54.6346 6.52809L54.399 6.40886C52.8735 5.63653 50.875 5.42949 49.2389 5.97004C48.4158 6.242 47.672 6.70772 47.1338 7.39972C46.5934 8.09457 46.2776 8.99545 46.2776 10.104C46.2776 11.1693 46.5174 11.9472 46.9514 12.5452C47.3807 13.1368 47.9733 13.514 48.6023 13.8274C48.728 13.891 48.8644 13.953 48.9937 14.0118C49.0406 14.0331 49.0866 14.054 49.1308 14.0744C49.3044 14.1545 49.461 14.2314 49.5963 14.3156C49.8698 14.4858 49.9911 14.6445 50.0093 14.8369L50.0096 14.8397C50.0431 15.168 49.9394 15.3256 49.8107 15.4262C49.6545 15.5481 49.4132 15.6204 49.1279 15.6596C47.9445 15.7852 47.0717 15.4346 46.258 15.0313L45.8513 14.8297L45.7451 15.271C45.5177 16.2164 45.3126 17.1635 45.1302 18.1949L45.0755 18.5043L45.3741 18.6021C46.6616 19.0237 48.2532 19.3714 49.7933 19.2265L49.7947 19.2264C51.0147 19.1071 52.2155 18.4554 52.8694 17.6255C53.2624 17.1293 53.6207 16.3276 53.7988 15.4709C53.9768 14.6147 53.9873 13.6436 53.6155 12.8284L53.6146 12.8264C53.3883 12.3381 53.0051 11.9497 52.596 11.6371C52.186 11.3238 51.728 11.0703 51.3291 10.8613L51.3292 10.8612L51.3201 10.8567C51.2071 10.8015 51.0969 10.7526 50.9895 10.705C50.7812 10.6127 50.5835 10.5251 50.3966 10.4044C50.134 10.235 50.0164 10.0722 50.0085 9.87724C50.0099 9.68811 50.0831 9.55899 50.195 9.46154C50.3165 9.35579 50.4946 9.28024 50.695 9.24599C51.694 9.11451 52.4743 9.45071 53.2135 9.76921C53.3046 9.80843 53.395 9.84739 53.4851 9.88518L53.9103 10.0634L53.9827 9.6081C54.0591 9.12809 54.1683 8.68647 54.2818 8.22868L54.2832 8.22273C54.3954 7.77023 54.5115 7.30158 54.5931 6.78879Z" fill="#009651" stroke="white" stroke-width="0.724203"/>
<path d="M62.5938 6.79972L62.6431 6.53565L62.4047 6.41184C61.0505 5.7085 59.3945 5.50573 57.9295 5.80486C56.4651 6.10388 55.1398 6.91855 54.5363 8.3021L54.5362 8.30207L54.533 8.30982C54.1737 9.1885 54.1403 10.1533 54.3035 10.9996C54.4654 11.8389 54.8298 12.6067 55.3176 13.0747C55.5518 13.3018 55.8608 13.4773 56.159 13.6264C56.3012 13.6974 56.4486 13.7662 56.5913 13.8327C56.601 13.8372 56.6107 13.8417 56.6204 13.8462C56.774 13.9179 56.9221 13.9873 57.0634 14.0593C57.3505 14.2054 57.5811 14.348 57.7394 14.5052C57.8895 14.6544 57.9615 14.8027 57.9649 14.977L57.9649 14.9776C57.9688 15.1621 57.9153 15.278 57.8396 15.3621C57.7565 15.4543 57.6216 15.535 57.4254 15.5942C57.027 15.7145 56.4867 15.714 55.9935 15.6605C55.6796 15.6244 55.3872 15.5276 55.0868 15.4051C54.9835 15.3631 54.8713 15.3142 54.7553 15.2637C54.5578 15.1777 54.3493 15.0869 54.155 15.0165L53.7429 14.8672L53.6741 15.3001C53.6054 15.7319 53.5149 16.1368 53.4212 16.5561C53.4099 16.6067 53.3986 16.6576 53.3872 16.7087C53.2824 17.1798 53.1775 17.6702 53.1074 18.2128L53.0685 18.5146L53.3591 18.605C54.7069 19.024 56.2087 19.3727 57.7726 19.2278L57.7726 19.2279L57.7759 19.2275C58.9525 19.1076 60.0099 18.5385 60.7264 17.6938C61.4875 16.8221 62.02 15.5377 61.875 13.9698C61.7205 12.2697 60.5308 11.5819 59.4675 11.0286C59.3689 10.9762 59.2652 10.926 59.1588 10.8744C58.9364 10.7665 58.7021 10.6529 58.4777 10.5025C58.1486 10.2818 57.9964 10.0768 57.9882 9.87852C57.9896 9.66983 58.0673 9.53565 58.1747 9.44208C58.2927 9.33936 58.4662 9.27065 58.6608 9.24901L58.6608 9.2491L58.6687 9.24805C59.7935 9.09802 60.676 9.51791 61.4251 9.87872L61.8294 10.0734L61.9343 9.63718C61.9929 9.39363 62.0536 9.1497 62.1146 8.9046C62.2856 8.21768 62.4588 7.52168 62.5938 6.79972Z" fill="#009651" stroke="white" stroke-width="0.724203"/>
<path d="M62.6224 8.36565H63.0163L62.852 9.4705L62.7902 9.88586H63.2101H63.391H63.7032L63.7492 9.57702L63.9293 8.36565H64.024H64.3462L64.3836 8.04557L64.4062 7.85208L64.4535 7.44796H64.0466H63.0519H62.7296L62.6922 7.76805L62.6696 7.96153L62.6224 8.36565Z" fill="#009651" stroke="white" stroke-width="0.724203"/>
<path d="M64.7092 9.88586H64.872H65.1089H65.2446H65.5705L65.6047 9.56176L65.7855 7.84806L65.8277 7.44796H65.4254H65.1994H64.9613L64.8669 7.66655L64.8329 7.74523L64.7982 7.44796H64.476H64.2499H63.9562L63.8956 7.73528L63.5339 9.44898L63.4417 9.88586H63.8882H64.0464H64.1786H64.3438H64.4986H64.6342H64.7092Z" fill="#009651" stroke="white" stroke-width="0.724203"/>
</svg>
