<svg width="65" height="26" viewBox="0 0 65 26" fill="none" xmlns="http://www.w3.org/2000/svg">
<path d="M59.8196 1.2876H55.7879C54.569 1.2876 53.6314 1.74616 53.0688 3.23648L45.3804 24.6741H50.8185C50.8185 24.6741 51.7561 21.8081 51.9437 21.1203C52.5062 21.1203 57.8506 21.1203 58.6007 21.1203C58.7882 21.9228 59.2571 24.5595 59.2571 24.5595H64.1326L59.8196 1.2876ZM53.4438 16.3054C53.9127 14.9297 55.5066 9.77095 55.5066 9.77095C55.5066 9.88559 55.9754 8.39527 56.1629 7.59279L56.538 9.65631C56.538 9.65631 57.5693 15.2737 57.7569 16.4201H53.4438V16.3054Z" fill="#3362AB"/>
<path d="M45.7557 16.992C45.7557 21.8068 42.1928 25.0168 36.6609 25.0168C34.3168 25.0168 32.0666 24.4436 30.8477 23.7557L31.5977 18.4823L32.2541 18.8262C33.9418 19.7433 35.0669 20.0872 37.1297 20.0872C38.6298 20.0872 40.2238 19.3994 40.2238 17.7944C40.2238 16.7627 39.5675 16.0748 37.5047 14.9284C35.5357 13.782 32.9104 11.9478 32.9104 8.62325C32.9104 4.03766 36.5671 0.942383 41.724 0.942383C43.693 0.942383 45.3807 1.40094 46.412 1.97414L45.662 7.0183L45.2869 6.55974C44.3493 6.10118 43.1304 5.64262 41.3489 5.64262C39.3799 5.75726 38.4423 6.78902 38.4423 7.70614C38.4423 8.73789 39.5675 9.54037 41.3489 10.5721C44.3493 12.2917 45.7557 14.2406 45.7557 16.992Z" fill="#3362AB"/>
<path d="M0 1.51618L0.0937614 1.05762H8.15724C9.28237 1.05762 10.1262 1.51618 10.4075 3.0065L12.189 13.3241C10.4075 7.82137 6.28201 3.35042 0 1.51618Z" fill="#F9B50B"/>
<path d="M23.5337 1.28505L15.3765 24.5569H9.84456L5.15649 5.06817C8.5319 7.70488 11.3447 11.8319 12.3761 14.6979L12.9387 17.1054L18.0018 1.17041H23.5337V1.28505Z" fill="#3362AB"/>
<path d="M25.6906 1.17041H30.8475L27.5658 24.5569H22.4089L25.6906 1.17041Z" fill="#3362AB"/>
</svg>
