<svg width="39" height="39" viewBox="0 0 39 39" fill="none" xmlns="http://www.w3.org/2000/svg">
<path d="M24.7821 18.7779L20.7138 14.1691L16.1934 18.3076L20.2617 23.0105L24.7821 18.7779Z" fill="#137ABE"/>
<path d="M12.9387 10.4068L17.007 15.0156L21.5274 10.8771L17.4591 6.26831L12.9387 10.4068Z" fill="#137ABE"/>
<path d="M27.9464 26.7728L23.878 22.164L19.3577 26.3965L23.426 31.0053L27.9464 26.7728Z" fill="#137ABE"/>
<path d="M23.2452 34.4854L15.8317 25.9262L17.9111 24.0451L12.6675 18.0254L14.7469 16.1443L9.5032 10.1247L17.7303 2.50603L20.3521 5.4218L24.8725 1.37735L27.4944 4.19906L29.2121 2.60009C28.8505 2.41197 28.3984 2.1298 28.0368 1.94169C25.415 0.813003 22.6123 0.0605469 19.6289 0.0605469C9.23198 0.0605469 0.733643 8.80786 0.733643 19.5304C0.733643 30.2529 9.23198 39.0002 19.7193 39.0002C23.1548 39.0002 26.3191 38.0596 29.0313 36.4606C29.9354 35.8963 30.749 35.332 31.5627 34.7676L27.7656 30.3469L23.2452 34.4854Z" fill="#137ABE"/>
<path d="M21.2562 8.14946L24.2397 11.6296L27.6752 8.52568L24.6013 5.04557L21.2562 8.14946Z" fill="#137ABE"/>
<path d="M30.749 15.4859L27.6752 12.0058L24.3301 15.2037L27.4039 18.5898L30.749 15.4859Z" fill="#137ABE"/>
<path d="M33.6421 22.8224L30.5682 19.3422L27.2231 22.4461L30.297 26.0203L33.6421 22.8224Z" fill="#137ABE"/>
<path d="M33.8229 11.3474L31.5627 13.4167L33.6421 15.7681L35.8119 13.6988L33.8229 11.3474Z" fill="#137ABE"/>
<path d="M34.4558 20.2828L36.4447 22.6342L38.7049 20.565L36.6255 18.2136L34.4558 20.2828Z" fill="#137ABE"/>
<path d="M28.6697 6.55049L30.749 8.90191L32.9188 6.83266L30.9299 4.48123L28.6697 6.55049Z" fill="#137ABE"/>
<path d="M30.2066 29.5004L33.2805 32.9805L36.6255 29.8766L33.5517 26.3965L30.2066 29.5004Z" fill="#137ABE"/>
</svg>
