<svg width="65" height="24" viewBox="0 0 65 24" fill="none" xmlns="http://www.w3.org/2000/svg">
<path d="M64.3138 23.963H0.336426V0.942383H64.3138V23.963Z" fill="#13110C"/>
<path d="M23.0402 5.34961C21.5595 5.34961 20.6958 6.10937 20.6958 7.40096C20.6958 8.23669 21.0043 8.8445 21.7446 9.07242L23.1636 9.60425C23.3486 9.68023 23.5337 9.83218 23.5337 10.0601C23.5337 10.364 23.3487 10.5919 23.0402 10.5919C22.8551 10.5919 22.7317 10.516 22.67 10.364C22.6083 10.2121 22.5466 10.0601 22.5466 9.90816H20.5724C20.5724 11.5796 21.7446 12.0355 22.9785 12.0355C24.4592 12.0355 25.4463 11.3517 25.4463 9.83218C25.4463 9.07242 25.1378 8.46462 24.5209 8.16071C24.0273 7.85681 23.287 7.70486 22.9168 7.55291C22.7317 7.47693 22.6083 7.40096 22.6083 7.17303C22.6083 6.9451 22.7317 6.79315 23.1019 6.79315C23.3487 6.79315 23.5337 6.9451 23.5337 7.32498H25.3846C25.2612 5.80546 24.3358 5.34961 23.0402 5.34961ZM51.1729 5.34961V19.4051H51.7899V5.34961H51.1729ZM57.6509 5.42559C57.2807 5.42559 56.9722 5.80546 56.9722 6.26132C56.9722 6.71717 57.2807 7.09705 57.6509 7.09705C58.021 7.09705 58.3295 6.71717 58.3295 6.26132C58.3912 5.80546 58.0827 5.42559 57.6509 5.42559ZM6.44434 5.50156L7.55483 11.8835H9.77584L10.2694 7.78083L10.763 11.8835H12.984L14.0945 5.50156H12.2436L11.8118 9.4523L11.3182 5.50156H9.22059L8.72703 9.4523L8.23348 5.50156H6.44434ZM15.2667 5.50156V11.8835H19.2151V10.2121H17.1792V9.52828H18.9683V7.85681H17.1792V7.17303H19.1534V5.50156H15.2667ZM26.6185 5.50156V7.17303H27.9141V11.8076H29.95V7.17303H31.2456V5.50156H26.6185ZM32.5412 5.50156V11.8835H36.5513V10.2121H34.5154V9.52828H36.3045V7.85681H34.5154V7.17303H36.4896V5.50156H32.5412ZM38.032 5.50156V11.8835H40.0062V9.60425H40.253C40.5615 9.60425 40.6848 9.75621 40.7465 10.0601C40.8082 10.5919 40.8699 11.4277 40.9933 11.8835H42.9675C42.7208 10.8958 42.7825 10.0601 42.6591 9.4523C42.5357 8.99645 42.2889 8.69254 41.7953 8.61657C42.5357 8.38864 42.8442 7.85681 42.8442 7.09705C42.8442 5.88144 42.1655 5.50156 41.1167 5.50156H38.032ZM44.4482 5.50156V11.8835H46.114V8.00876L47.2245 11.8835H49.6922V5.50156H48.0265V9.30035L46.916 5.50156H44.4482ZM55.8 5.50156V19.4051H56.417V5.50156H55.8ZM57.6509 5.50156C57.9593 5.50156 58.2061 5.80546 58.2061 6.26132C58.2061 6.6412 57.9593 7.02108 57.6509 7.02108C57.3424 7.02108 57.0956 6.71717 57.0956 6.26132C57.0956 5.88144 57.3424 5.50156 57.6509 5.50156ZM57.4041 5.80546V6.71717H57.5275V6.33729H57.7126L57.8976 6.79315H58.021L57.7743 6.33729C57.8976 6.33729 58.021 6.26132 58.021 6.10937C58.021 5.95742 57.9593 5.88144 57.7743 5.88144H57.4041V5.80546ZM57.5275 5.88144H57.7126C57.8359 5.88144 57.8976 5.88144 57.8976 6.03339C57.8976 6.26132 57.7126 6.18534 57.6509 6.18534H57.5275V5.88144ZM40.0679 6.9451H40.253C40.6231 6.9451 40.9316 7.02108 40.9316 7.47693C40.9316 7.93279 40.6231 8.16071 40.253 8.16071H40.0679V6.9451ZM40.253 12.9472C38.4638 12.9472 37.6001 14.3148 37.6001 16.2901C37.6001 18.2655 38.4638 19.6331 40.253 19.6331C42.0421 19.6331 42.9058 18.2655 42.9058 16.2901C42.9058 14.3148 42.0421 12.9472 40.253 12.9472ZM20.5107 13.0991V17.3538C20.5107 18.8733 21.3744 19.6331 22.9785 19.6331C24.5209 19.6331 25.4463 18.8733 25.4463 17.3538V13.0991H23.4104V17.2018C23.4104 17.7337 23.2253 17.8856 22.9785 17.8856C22.7317 17.8856 22.5466 17.6577 22.5466 17.2018V13.0991H20.5107ZM27.112 13.0991V19.4811H28.7778V15.6063L29.8883 19.4811H32.3561V13.0991H30.6903V16.9739L29.5798 13.0991H27.112ZM34.0218 13.0991V19.4811H36.0578V13.0991H34.0218ZM44.4482 13.0991V19.4811H46.114V15.6063L47.2245 19.4811H49.6922V13.0991H48.0265V16.9739L46.916 13.0991H44.4482ZM40.253 14.6187C40.5615 14.6187 40.8082 14.8466 40.8082 16.2901C40.8082 17.7337 40.5615 17.9616 40.253 17.9616C39.9445 17.9616 39.6977 17.7337 39.6977 16.2901C39.6977 14.8466 39.9445 14.6187 40.253 14.6187Z" fill="#FFDF27"/>
</svg>
