<svg width="14" height="13" viewBox="0 0 14 13" fill="none" xmlns="http://www.w3.org/2000/svg">
<path d="M7 1L6.33244 0.658144C6.46074 0.407606 6.71852 0.25 7 0.25C7.28148 0.25 7.53926 0.407606 7.66756 0.658144L7 1ZM5.146 4.6204L5.81356 4.96226C5.70231 5.17949 5.49231 5.32901 5.25063 5.36306L5.146 4.6204ZM1 5.20452L0.486655 5.75131C0.276247 5.55377 0.197852 5.25303 0.285054 4.97791C0.372256 4.70279 0.609584 4.50212 0.895367 4.46186L1 5.20452ZM4 8.02103L4.51334 7.47424C4.69815 7.64774 4.78281 7.90285 4.7384 8.15242L4 8.02103ZM3.292 12L3.6311 12.669C3.3775 12.7975 3.07302 12.7716 2.84478 12.6021C2.61654 12.4325 2.50379 12.1485 2.5536 11.8686L3.292 12ZM7 10.1204L6.6609 9.45144C6.87406 9.34339 7.12594 9.34339 7.3391 9.45144L7 10.1204ZM10.708 12L11.4464 11.8686C11.4962 12.1485 11.3835 12.4325 11.1552 12.6021C10.927 12.7716 10.6225 12.7975 10.3689 12.669L10.708 12ZM10 8.02103L9.2616 8.15242C9.21719 7.90285 9.30185 7.64774 9.48666 7.47424L10 8.02103ZM13 5.20452L13.1046 4.46186C13.3904 4.50212 13.6277 4.70279 13.7149 4.97791C13.8021 5.25303 13.7238 5.55377 13.5133 5.75131L13 5.20452ZM8.854 4.6204L8.74937 5.36306C8.50769 5.32901 8.29769 5.17949 8.18644 4.96226L8.854 4.6204ZM7.66756 1.34186L5.81356 4.96226L4.47844 4.27854L6.33244 0.658144L7.66756 1.34186ZM5.25063 5.36306L1.10463 5.94719L0.895367 4.46186L5.04137 3.87773L5.25063 5.36306ZM1.51334 4.65773L4.51334 7.47424L3.48666 8.56782L0.486655 5.75131L1.51334 4.65773ZM4.7384 8.15242L4.0304 12.1314L2.5536 11.8686L3.2616 7.88964L4.7384 8.15242ZM2.9529 11.331L6.6609 9.45144L7.3391 10.7894L3.6311 12.669L2.9529 11.331ZM7.3391 9.45144L11.0471 11.331L10.3689 12.669L6.6609 10.7894L7.3391 9.45144ZM9.9696 12.1314L9.2616 8.15242L10.7384 7.88964L11.4464 11.8686L9.9696 12.1314ZM9.48666 7.47424L12.4867 4.65773L13.5133 5.75131L10.5133 8.56782L9.48666 7.47424ZM12.8954 5.94719L8.74937 5.36306L8.95863 3.87773L13.1046 4.46186L12.8954 5.94719ZM8.18644 4.96226L6.33244 1.34186L7.66756 0.658144L9.52156 4.27854L8.18644 4.96226Z" fill="#ABE000"/>
</svg>
