<svg width="64" height="41" fill="none" xmlns="http://www.w3.org/2000/svg"><path d="M63.663 20.238c0 11.105-8.521 20.238-19.1 20.238-10.479 0-19.098-9.133-19.098-20.238S33.986 0 44.465 0c10.677 0 19.198 9.133 19.198 20.238z" fill="#F9B50B"/><path d="M38.1 20.342c0-1.453-.196-2.906-.392-4.255H25.955c.098-.727.294-1.35.49-2.18h10.48c-.197-.726-.49-1.453-.784-2.18h-8.913c.294-.726.685-1.348 1.077-2.179h6.758a14.2 14.2 0 00-1.469-2.18h-3.722a19.06 19.06 0 011.96-2.075C28.501 1.972 23.995 0 19 0 8.619.311 0 9.133 0 20.238s8.521 20.238 19.099 20.238c4.995 0 9.402-2.076 12.83-5.293.686-.623 1.273-1.35 1.959-2.18H29.97c-.49-.622-.98-1.349-1.37-2.075h6.66c.391-.623.783-1.35 1.077-2.18h-8.913a11.013 11.013 0 01-.784-2.18h10.48c.588-1.867.98-3.943.98-6.226z" fill="#C8191C"/><path d="M25.857 25.428l.294-1.868c-.098 0-.294.104-.49.104-.686 0-.784-.415-.686-.623l.588-3.736h1.077l.294-2.076h-.98l.197-1.245h-2.057s-1.175 7.057-1.175 7.888c0 1.245.685 1.868 1.665 1.868a2.87 2.87 0 001.273-.312zm.685-3.425c0 3.01 1.959 3.736 3.526 3.736 1.469 0 2.154-.312 2.154-.312l.392-2.075s-1.077.519-2.155.519c-2.252 0-1.86-1.765-1.86-1.765h4.113s.294-1.349.294-1.972c0-1.349-.686-3.113-2.938-3.113-1.96-.104-3.526 2.283-3.526 4.982zm3.526-3.114c1.077 0 .881 1.35.881 1.453h-2.253c.098-.104.294-1.453 1.372-1.453zm12.831 6.539l.391-2.387s-.979.519-1.763.519c-1.37 0-2.056-1.142-2.056-2.49 0-2.596 1.175-3.945 2.644-3.945.98 0 1.861.623 1.861.623l.294-2.283s-1.176-.52-2.35-.52c-2.351 0-4.604 2.18-4.604 6.228 0 2.698 1.175 4.463 3.624 4.463.881.103 1.959-.208 1.959-.208zM14.79 16.917c-1.372 0-2.45.415-2.45.415l-.293 1.868s.882-.415 2.253-.415c.685 0 1.273.104 1.273.727 0 .415-.098.518-.098.518h-.881c-1.763 0-3.624.727-3.624 3.218 0 1.972 1.175 2.387 1.959 2.387 1.37 0 2.056-.934 2.154-.934l-.098.83h1.665l.784-5.916c0-2.594-1.959-2.698-2.645-2.698zm.391 4.774c0 .311-.196 2.076-1.37 2.076-.589 0-.784-.52-.784-.83 0-.52.293-1.246 1.86-1.246h.294zm4.211 3.944c.49 0 3.036.103 3.036-2.803 0-2.698-2.448-2.179-2.448-3.217 0-.519.392-.726 1.077-.726.294 0 1.371.104 1.371.104l.294-1.972s-.685-.208-1.959-.208c-1.469 0-3.036.623-3.036 2.802 0 2.491 2.547 2.283 2.547 3.218 0 .622-.686.726-1.176.726-.881 0-1.86-.311-1.86-.311l-.294 1.972c.196.207.783.415 2.448.415zm40.353-10.378l-.392 2.906s-.783-1.038-1.959-1.038c-1.86 0-3.428 2.387-3.428 5.19 0 1.763.784 3.528 2.547 3.528 1.175 0 1.959-.83 1.959-.83l-.098.726h2.056l1.47-10.275-2.155-.207zm-.98 5.604c0 1.142-.49 2.699-1.665 2.699-.685 0-1.077-.623-1.077-1.765 0-1.764.686-2.802 1.665-2.802.686.104 1.078.623 1.078 1.868zM3.722 25.532l1.175-7.68.196 7.68h1.371l2.645-7.68-1.078 7.68h2.155l1.665-10.275h-3.33l-2.057 6.33-.098-6.33H3.428L1.763 25.532h1.959z" fill="#fff"/><path d="M35.063 25.532c.588-3.53.686-6.435 2.155-5.916.196-1.35.49-1.972.686-2.491h-.392c-.882 0-1.665 1.245-1.665 1.245l.196-1.141h-1.959l-1.273 8.303h2.252zM47.6 16.917a7.536 7.536 0 00-2.45.415l-.293 1.868s.881-.415 2.253-.415c.685 0 1.273.104 1.273.727 0 .415-.098.518-.098.518h-.882c-1.763 0-3.623.727-3.623 3.218 0 1.972 1.175 2.387 1.958 2.387 1.372 0 2.057-.934 2.155-.934l-.098.83h1.861l.784-5.916c0-2.594-2.155-2.698-2.84-2.698zm.489 4.774c0 .311-.196 2.076-1.371 2.076-.588 0-.784-.52-.784-.83 0-.52.294-1.246 1.861-1.246h.294zm3.918 3.841c.588-3.53.686-6.435 2.155-5.916.196-1.35.49-1.972.686-2.491h-.392c-.882 0-1.665 1.245-1.665 1.245l.196-1.141h-1.96l-1.272 8.303h2.252z" fill="#fff"/></svg>