<svg width="67" height="25" fill="none" xmlns="http://www.w3.org/2000/svg"><path d="M3.927 10.563l.01-.056c.153.186.326.346.52.48.44.304.964.456 1.529.502 1.736.15 3.033-.665 3.855-1.972.81-1.29 1.162-3.055 1.08-4.872-.07-1.92-1-3.739-2.893-3.965-.89-.12-1.64.021-2.264.354-.203.108-.39.235-.563.377l.02-.124.064-.417H3.064l-.03.328c-.226 2.39-.597 4.673-.983 6.925l-.172.99c-.33 1.912-.66 3.81-.902 5.728l-.051.408H3.15l.056-.296c.145-.772.27-1.588.392-2.392.086-.57.172-1.133.264-1.67l.064-.328zm1.157-1.726v-.001c-.63-.679-.72-1.88-.428-3.108a6.339 6.339 0 01.635-1.64c.27-.475.564-.81.825-.972.157-.096.296-.143.67-.168h.015l.014-.003c.484-.071.967.055 1.249.338.211.218.36.56.437 1.006.076.444.076.96.018 1.489-.118 1.068-.463 2.105-.793 2.608a2.115 2.115 0 01-1.256.872c-.488.11-.989.01-1.386-.421z" fill="#030000" stroke="#fff" stroke-width=".724"/><path d="M17.545 11.295h.324l.036-.322c.125-1.127.29-2.16.46-3.217l.035-.221v-.001c.039-.249.084-.504.13-.765.162-.912.336-1.891.28-2.877v-.001c-.048-.83-.3-1.495-.712-2.002-.41-.505-.96-.827-1.566-1.008-1.199-.358-2.652-.172-3.863.288l-.207.079-.024.22c-.033.295-.078.585-.123.883v.004c-.045.295-.091.598-.126.91l-.097.864.682-.541c.273-.216.7-.42 1.188-.55.487-.129 1.004-.177 1.45-.111.447.065.784.238.981.514.167.233.271.594.196 1.15-1.068-.03-2.159-.005-3.11.22-1.049.248-1.975.755-2.493 1.75-.412.757-.428 1.699-.38 2.247.156 1.814 1.796 2.892 3.525 2.678h0c.663-.085 1.205-.405 1.634-.806l-.026.209-.05.406h1.856zm-4.567-2.898h0c-.024-.415.078-.713.247-.937.174-.23.44-.411.79-.546.602-.231 1.386-.299 2.153-.28-.134.67-.356 1.303-.676 1.783-.376.564-.866.894-1.513.882h0-.006c-.448 0-.963-.34-.995-.902z" fill="#030000" stroke="#fff" stroke-width=".724"/><path d="M21.386 1.212l-.042-.314h-2.166l-.092.225-.005.011v.001l-.01.025a.428.428 0 00.002.359c.242 1.72.5 3.445.755 5.164.235 1.573.469 3.141.69 4.7-.194.454-.422.927-.71 1.292-.307.387-.643.605-1.042.605a.937.937 0 01-.257-.062l-.016-.005c-.103-.033-.289-.093-.477-.067l-.3.04-.013.303c-.01.232-.05.441-.095.683h0a5.368 5.368 0 00-.108.81l-.012.296.288.07c.553.136 1.16.166 1.72.08.557-.087 1.099-.295 1.487-.667.411-.393.74-.969 1.02-1.544.14-.292.275-.594.403-.884l.037-.085c.115-.261.225-.512.334-.743v-.002l.053-.108c1.611-3.337 3.288-6.81 4.72-9.986l.231-.511H25.34l-.097.21a247.69 247.69 0 00-1.493 3.314c-.482 1.084-.963 2.166-1.458 3.237a255.23 255.23 0 00-.457-3.252c-.154-1.066-.308-2.127-.448-3.195z" fill="#030000" stroke="#fff" stroke-width=".724"/><path d="M29.45 7.224a7.61 7.61 0 00.054-.655l.011-.34-.338-.032a16.957 16.957 0 00-2.94 0l-.3.028-.027.3c-.21 2.315-.598 4.527-.985 6.733-.109.62-.218 1.24-.322 1.863h0a527.68 527.68 0 00-.58 3.565 402.41 402.41 0 01-.822 5.002l-.073.423h3.954l.045-.31c.168-1.17.36-2.306.552-3.447v-.002c.136-.804.272-1.61.4-2.43.241.354.517.672.847.928.611.473 1.377.707 2.373.616h.002c1.645-.154 2.874-1.35 3.646-2.96.775-1.614 1.126-3.703 1-5.797-.071-1.229-.37-2.357-.912-3.219-.547-.868-1.347-1.47-2.39-1.597h-.003c-1.517-.174-2.478.547-3.192 1.33zm.029 3.687h0l.002-.004c.31-.558.662-.893 1.21-.98h0a.917.917 0 01.557.06c.142.069.27.186.38.36.226.358.351.917.362 1.578.022 1.459-.415 2.566-.957 3.11-.19.19-.513.358-.85.41-.333.05-.617-.02-.803-.212h0l-.002-.002c-.367-.373-.546-1.107-.51-1.984.035-.86.272-1.747.61-2.336z" fill="#009651" stroke="#fff" stroke-width=".724"/><path d="M44.367 18.98l.326.011.045-.323.144-1.06c.15-1.11.299-2.209.486-3.293.038-.205.079-.415.12-.627.244-1.268.508-2.637.428-3.964v-.001c-.096-1.49-.64-2.582-1.57-3.262-.916-.67-2.15-.894-3.541-.78-1.034.06-1.847.355-2.676.72l-.18.08-.031.195c-.082.51-.133 1.04-.181 1.558l-.015.16c-.043.466-.085.92-.145 1.358l-.115.846.688-.505c.3-.22.816-.48 1.4-.661.585-.182 1.195-.27 1.693-.186.306.054.572.217.741.47.128.191.213.453.202.79-2.248-.226-4.501.19-5.754 1.779-.586.732-.908 1.905-.935 3.032-.026 1.124.239 2.32.96 3.057h0l.001.002c.672.677 1.66.92 2.587.852.927-.067 1.865-.449 2.461-1.114h0l.002-.003.008-.009a5.837 5.837 0 01-.049.403l-.06.364.366.053c.413.059.866.065 1.306.062l.371-.005c.316-.004.622-.008.917.001zm-4.645-3.338h0l-.008-.002c-.102-.024-.26-.136-.38-.366a1.173 1.173 0 01-.097-.798c.08-.31.31-.556.663-.735.355-.18.806-.275 1.252-.289.059 0 .119 0 .18-.002a9.62 9.62 0 01.336-.001c.063.001.123.003.181.007-.1.561-.337 1.144-.674 1.574-.401.512-.894.757-1.453.612zm14.871-8.853l.042-.26-.236-.12c-1.526-.772-3.524-.98-5.16-.439-.823.272-1.567.738-2.105 1.43-.54.695-.856 1.595-.856 2.704 0 1.065.24 1.843.673 2.441.43.592 1.022.969 1.651 1.282.126.064.262.126.392.185l.137.062c.173.08.33.157.465.242.274.17.395.329.413.52v.004c.034.328-.07.486-.198.586-.157.122-.398.194-.683.234-1.184.125-2.056-.225-2.87-.629l-.407-.201-.106.441a48.196 48.196 0 00-.615 2.924l-.055.31.3.097c1.287.422 2.878.77 4.418.625h.002c1.22-.12 2.42-.772 3.074-1.602.393-.496.752-1.297.93-2.154.178-.856.188-1.827-.184-2.643v-.002c-.227-.488-.61-.876-1.019-1.189-.41-.313-.868-.567-1.267-.776h0l-.009-.004a9.644 9.644 0 00-.33-.152 4.169 4.169 0 01-.593-.3c-.263-.17-.38-.333-.389-.528a.524.524 0 01.187-.415c.121-.106.3-.182.5-.216.999-.131 1.78.205 2.519.523.09.04.181.078.271.116l.425.178.073-.455c.076-.48.185-.922.299-1.38l.001-.005c.112-.453.228-.921.31-1.434z" fill="#009651" stroke="#fff" stroke-width=".724"/><path d="M62.594 6.8l.05-.264-.24-.124c-1.354-.704-3.01-.906-4.475-.607-1.464.299-2.79 1.114-3.393 2.497h0l-.003.008c-.36.878-.393 1.843-.23 2.69.162.839.527 1.607 1.015 2.075.234.227.543.402.841.551a17.884 17.884 0 00.461.22c.154.072.302.141.443.213.287.146.518.289.676.446.15.15.223.298.226.472h0a.525.525 0 01-.125.385c-.084.092-.218.173-.415.232-.398.12-.938.12-1.431.067a3.423 3.423 0 01-.907-.256 12.06 12.06 0 01-.332-.141 10.28 10.28 0 00-.6-.247l-.412-.15-.069.433c-.069.432-.16.837-.253 1.256l-.034.153c-.105.47-.21.961-.28 1.504l-.038.302.29.09c1.348.419 2.85.768 4.414.623h.003a4.469 4.469 0 002.95-1.534c.761-.872 1.294-2.156 1.149-3.724-.154-1.7-1.344-2.388-2.407-2.941-.1-.053-.203-.103-.31-.155a5.325 5.325 0 01-.68-.372c-.33-.22-.482-.425-.49-.623a.548.548 0 01.187-.437.896.896 0 01.486-.193h0l.008-.001c1.125-.15 2.007.27 2.756.63l.404.195.105-.436.18-.732c.172-.687.345-1.383.48-2.105zm.028 1.566h.394l-.164 1.104-.062.416h.913l.046-.309.18-1.211h.417l.038-.32.022-.194.047-.404H62.73l-.038.32-.022.194-.048.404z" fill="#009651" stroke="#fff" stroke-width=".724"/><path d="M64.71 9.886h.86l.035-.324.18-1.714.043-.4h-.867l-.094.219-.034.078-.035-.297h-.842l-.06.287-.362 1.714-.092.437h1.267z" fill="#009651" stroke="#fff" stroke-width=".724"/></svg>