<svg width="65" height="26" fill="none" xmlns="http://www.w3.org/2000/svg"><path d="M59.82 1.288h-4.032c-1.219 0-2.157.458-2.72 1.948L45.38 24.674h5.438s.938-2.866 1.126-3.554H58.6c.187.803.656 3.44.656 3.44h4.876L59.82 1.288zm-6.376 15.017c.469-1.375 2.063-6.534 2.063-6.534 0 .115.468-1.376.656-2.178l.375 2.063s1.031 5.618 1.219 6.764h-4.313v-.115zm-7.688.687c0 4.815-3.563 8.025-9.095 8.025-2.344 0-4.594-.573-5.813-1.261l.75-5.274.656.344c1.688.917 2.813 1.261 4.876 1.261 1.5 0 3.094-.688 3.094-2.293 0-1.031-.656-1.72-2.72-2.866-1.968-1.146-4.594-2.98-4.594-6.305 0-4.585 3.657-7.68 8.814-7.68 1.969 0 3.657.458 4.688 1.031l-.75 5.044-.375-.458a8.514 8.514 0 00-3.938-.917c-1.97.114-2.907 1.146-2.907 2.063 0 1.032 1.126 1.834 2.907 2.866 3 1.72 4.407 3.669 4.407 6.42z" fill="#3362AB"/><path d="M0 1.516l.094-.458h8.063c1.125 0 1.97.458 2.25 1.948l1.782 10.318C10.408 7.821 6.282 3.35 0 1.516z" fill="#F9B50B"/><path d="M23.534 1.285l-8.157 23.272H9.845L5.156 5.068c3.376 2.637 6.189 6.764 7.22 9.63l.563 2.407L18.002 1.17h5.532v.115zm2.156-.115h5.157l-3.281 23.387h-5.157L25.69 1.17z" fill="#3362AB"/></svg>