<svg width="39" height="39" fill="none" xmlns="http://www.w3.org/2000/svg"><path d="M24.782 18.778l-4.068-4.609-4.52 4.139 4.068 4.703 4.52-4.233zm-11.843-8.371l4.068 4.609 4.52-4.139-4.068-4.609-4.52 4.139zm15.007 16.366l-4.068-4.609-4.52 4.232 4.068 4.61 4.52-4.233z" fill="#137ABE"/><path d="M23.245 34.485l-7.413-8.559 2.08-1.88-5.244-6.02 2.079-1.882-5.244-6.02 8.227-7.618 2.622 2.916 4.52-4.045L27.494 4.2l1.718-1.6c-.361-.188-.814-.47-1.175-.658C25.415.813 22.612.06 19.629.06 9.232.06.734 8.808.734 19.53S9.232 39 19.719 39c3.436 0 6.6-.941 9.312-2.54a61.4 61.4 0 002.532-1.693l-3.797-4.421-4.52 4.138z" fill="#137ABE"/><path d="M21.256 8.15l2.984 3.48 3.435-3.104-3.074-3.48-3.345 3.103zm9.493 7.336l-3.074-3.48-3.345 3.198 3.074 3.386 3.345-3.104zm2.893 7.336l-3.074-3.48-3.345 3.104 3.074 3.574 3.345-3.198zm.181-11.475l-2.26 2.07 2.08 2.351 2.169-2.07-1.99-2.35zm.633 8.936l1.989 2.351 2.26-2.069-2.08-2.351-2.17 2.069zM28.67 6.55l2.079 2.352 2.17-2.07-1.99-2.35-2.26 2.068zm1.537 22.95l3.074 3.48 3.345-3.103-3.074-3.48-3.345 3.103z" fill="#137ABE"/></svg>