<svg width="65" height="24" fill="none" xmlns="http://www.w3.org/2000/svg"><path d="M64.314 23.963H.336V.943h63.978v23.02z" fill="#13110C"/><path d="M23.04 5.35c-1.48 0-2.344.76-2.344 2.051 0 .836.308 1.444 1.049 1.671l1.419.532c.185.076.37.228.37.456 0 .304-.185.532-.494.532-.185 0-.308-.076-.37-.228-.062-.152-.123-.304-.123-.456h-1.975c0 1.672 1.173 2.128 2.407 2.128 1.48 0 2.467-.684 2.467-2.204 0-.76-.308-1.367-.925-1.671-.494-.304-1.234-.456-1.604-.608-.185-.076-.309-.152-.309-.38s.124-.38.494-.38c.247 0 .432.152.432.532h1.85c-.123-1.52-1.048-1.975-2.344-1.975zm28.133 0v14.055h.617V5.35h-.617zm6.478.076c-.37 0-.679.38-.679.835 0 .456.309.836.679.836.37 0 .678-.38.678-.836.062-.456-.246-.835-.678-.835zm-51.207.076l1.11 6.381h2.222l.493-4.102.494 4.103h2.221l1.11-6.382h-1.85l-.432 3.95-.494-3.95H9.221l-.494 3.95-.494-3.95H6.444zm8.823 0v6.381h3.948v-1.67H17.18v-.685h1.79V7.857h-1.79v-.684h1.974V5.502h-3.886zm11.352 0v1.671h1.295v4.635h2.036V7.173h1.296V5.502h-4.627zm5.922 0v6.381h4.01v-1.67h-2.036v-.685h1.79V7.857h-1.79v-.684h1.975V5.502h-3.95zm5.491 0v6.381h1.974V9.604h.247c.309 0 .432.152.493.456.062.532.124 1.368.247 1.823h1.974c-.246-.987-.184-1.823-.308-2.43-.123-.457-.37-.76-.864-.836.74-.228 1.05-.76 1.05-1.52 0-1.216-.68-1.595-1.728-1.595h-3.085zm6.416 0v6.381h1.666V8.01l1.11 3.874h2.468V5.502h-1.666V9.3l-1.11-3.798h-2.468zm11.352 0v13.903h.617V5.502H55.8zm1.85 0c.31 0 .556.303.556.76 0 .38-.247.76-.555.76-.309 0-.555-.305-.555-.76 0-.38.246-.76.555-.76zm-.246.303v.912h.123v-.38h.186l.185.456h.123l-.247-.456c.124 0 .247-.076.247-.228 0-.152-.062-.228-.247-.228h-.37v-.076zm.123.076h.186c.123 0 .185 0 .185.152 0 .228-.185.152-.247.152h-.123v-.304zm-17.46 1.064h.186c.37 0 .679.076.679.532s-.309.684-.679.684h-.185V6.945zm.186 6.002c-1.79 0-2.653 1.368-2.653 3.343 0 1.976.864 3.343 2.653 3.343 1.79 0 2.653-1.367 2.653-3.343 0-1.975-.864-3.343-2.653-3.343zm-19.742.152v4.255c0 1.52.863 2.28 2.468 2.28 1.542 0 2.467-.76 2.467-2.28v-4.255H23.41v4.103c0 .532-.185.684-.431.684-.247 0-.432-.228-.432-.684v-4.103H20.51zm6.601 0v6.382h1.666v-3.875l1.11 3.875h2.468V13.1H30.69v3.875L29.58 13.1h-2.468zm6.91 0v6.382h2.036V13.1h-2.036zm10.426 0v6.382h1.666v-3.875l1.11 3.875h2.468V13.1h-1.666v3.875l-1.11-3.875h-2.468zm-4.195 1.52c.309 0 .555.228.555 1.671 0 1.444-.246 1.672-.555 1.672-.309 0-.555-.228-.555-1.672 0-1.443.246-1.671.555-1.671z" fill="#FFDF27"/></svg>