<svg width="15" height="14" fill="none" xmlns="http://www.w3.org/2000/svg"><path d="M12.3 7.722c-.155 0-.317-.049-.472-.084a6.651 6.651 0 01-.923-.275 1.41 1.41 0 00-1.747.705l-.155.317a8.582 8.582 0 01-1.874-1.41 8.582 8.582 0 01-1.41-1.874l.297-.197a1.41 1.41 0 00.704-1.747 7.279 7.279 0 01-.274-.923 5.228 5.228 0 01-.085-.48A2.114 2.114 0 004.247 0H2.134A2.114 2.114 0 00.02 2.403 13.387 13.387 0 0011.66 14h.267a2.114 2.114 0 001.932-1.252c.121-.274.183-.57.182-.869V9.766a2.114 2.114 0 00-1.74-2.044zm.353 4.228a.706.706 0 01-.51.677c-.1.03-.204.04-.308.027A11.978 11.978 0 011.471 2.241a.768.768 0 01.176-.578.705.705 0 01.529-.24H4.29a.705.705 0 01.704.557c.028.193.064.383.106.57.081.372.19.737.324 1.093l-.987.458a.705.705 0 00-.345.937A10.21 10.21 0 009.024 9.97a.71.71 0 00.536 0 .705.705 0 00.401-.367l.437-.986c.364.13.736.239 1.113.324.188.042.379.078.571.106a.705.705 0 01.557.704l.014 2.199z" fill="#101010"/></svg>