<svg width="14" height="13" fill="none" xmlns="http://www.w3.org/2000/svg"><path d="M7 1L5.146 4.62 1 5.205 4 8.02 3.292 12 7 10.12 10.708 12 10 8.021l3-2.816-4.146-.585L7 1z" fill="#ABE000"/><path d="M7 1L6.332.658a.75.75 0 011.336 0L7 1zM5.146 4.62l.668.342a.75.75 0 01-.563.401l-.105-.743zM1 5.205l-.513.546a.75.75 0 01.408-1.29L1 5.206zM4 8.02l.513-.547a.75.75 0 01.225.678L4 8.021zM3.292 12l.34.669a.75.75 0 01-1.078-.8l.738.131zM7 10.12l-.34-.669a.75.75 0 01.68 0l-.34.67zM10.708 12l.738-.131a.75.75 0 01-1.077.8l.339-.669zM10 8.021l-.738.131a.75.75 0 01.225-.678l.513.547zm3-2.816l.105-.743a.75.75 0 01.408 1.29L13 5.204zM8.854 4.62l-.105.743a.75.75 0 01-.563-.4l.668-.343zM7.668 1.342l-1.854 3.62-1.336-.683L6.332.659l1.336.683zM5.25 5.363l-4.146.584-.21-1.485 4.146-.584.21 1.485zm-3.738-.705l3 2.816-1.026 1.094-3-2.817 1.026-1.093zm3.225 3.494l-.708 3.98-1.476-.263.708-3.98 1.476.263zm-1.785 3.179l3.708-1.88.678 1.338-3.708 1.88-.678-1.338zm4.386-1.88l3.708 1.88-.678 1.338-3.708-1.88.678-1.338zm2.63 2.68l-.707-3.979 1.476-.262.708 3.979-1.476.262zm-.482-4.657l3-2.816 1.026 1.093-3 2.817-1.026-1.094zm3.408-1.527L8.75 5.363l.21-1.485 4.146.584-.21 1.485zm-4.709-.985l-1.854-3.62L7.668.658l1.854 3.62-1.336.684z" fill="#ABE000"/></svg>