<svg width="18" height="18" fill="none" xmlns="http://www.w3.org/2000/svg"><path fill-rule="evenodd" clip-rule="evenodd" d="M8.51 1.007l-.333.033c-1.543.147-3.074.791-4.302 1.81a7.993 7.993 0 00-2.763 4.777C1.02 8.155 1 8.407 1 9.003c0 .595.02.847.112 1.376a8.003 8.003 0 006.512 6.51c.529.09.78.111 1.376.111.596 0 .847-.02 1.376-.112a7.975 7.975 0 003.749-1.733 7.994 7.994 0 002.763-4.776c.092-.53.112-.78.112-1.376 0-.596-.02-.848-.112-1.376a8.003 8.003 0 00-6.976-6.58c-.26-.032-1.23-.06-1.402-.04zm1.247.656a7.391 7.391 0 015.214 3.008c.76 1.04 1.222 2.248 1.375 3.598.035.3.035 1.167 0 1.468-.2 1.752-.926 3.281-2.132 4.483-1.21 1.206-2.73 1.927-4.48 2.126-.3.035-1.167.035-1.468 0-1.389-.157-2.616-.637-3.688-1.44-.4-.3-.42-.327-.073-.097 1.425.945 3.217 1.348 4.88 1.1a7.016 7.016 0 005.745-5.22c.142-.576.177-.883.177-1.564 0-.632-.032-.95-.144-1.433-.553-2.382-2.398-4.275-4.683-4.805a5.673 5.673 0 00-3.848.447c-1.643.823-2.814 2.407-3.098 4.19a7.528 7.528 0 00-.033 1.35c.064.614.235 1.203.513 1.764.268.541.532.915.946 1.343.409.422.84.738 1.371 1.002 1.734.862 3.77.565 5.148-.754 1.224-1.17 1.67-2.854 1.16-4.378-.464-1.384-1.667-2.405-3.05-2.587a4.054 4.054 0 00-1.146.053c-1.26.295-2.244 1.305-2.46 2.525a3.521 3.521 0 000 .976c.097.553.343 1.027.746 1.434.33.334.697.549 1.136.667a2.44 2.44 0 001.035 0c.675-.175 1.218-.673 1.426-1.308.06-.18.065-.224.063-.497 0-.265-.008-.322-.061-.483a1.44 1.44 0 00-.717-.832c-.313-.156-.598-.167-.887-.035-.227.104-.367.279-.448.558-.1.346.07.653.393.714.076.014.08.012.094-.056.008-.04.014-.15.014-.247 0-.16.004-.175.045-.175.027 0 .044-.015.045-.04 0-.074.083-.178.166-.205.158-.052.35.026.521.211a.8.8 0 01.22.534c.02.332-.122.654-.405.916-.662.614-1.71.473-2.342-.315-.89-1.109-.445-2.79.926-3.5a2.45 2.45 0 011.214-.293c.708 0 1.356.25 1.918.74 1.286 1.12 1.508 3.048.52 4.514a3.902 3.902 0 01-2.47 1.658c-.245.052-.333.06-.714.06-.474.002-.648-.019-1.046-.123-1.687-.443-3.002-1.975-3.238-3.771a6.096 6.096 0 01-.01-1.143 5.077 5.077 0 012.352-3.666 5.203 5.203 0 011.898-.718 6.015 6.015 0 011.513-.012 5.386 5.386 0 011.591.503c2.132 1.05 3.415 3.365 3.192 5.762a6.297 6.297 0 01-1.43 3.393c-.248.296-.73.76-1.012.975-1.225.936-2.735 1.407-4.196 1.309-1.696-.114-3.165-.801-4.389-2.053a7.05 7.05 0 01-1.98-4.135 3.91 3.91 0 01-.009-.908 7.384 7.384 0 013.01-5.218C5.813 2.196 7.17 1.72 8.655 1.63c.2-.012.862.008 1.102.033z" fill="#101010" stroke="#101010"/></svg>