<svg width="14" height="14" viewBox="0 0 14 14" fill="none" xmlns="http://www.w3.org/2000/svg">
<path d="M9.54672 7.49653C10.2326 6.9569 10.7332 6.21691 10.979 5.37951C11.2247 4.5421 11.2033 3.64893 10.9178 2.82425C10.6322 1.99956 10.0968 1.28438 9.38586 0.778197C8.67494 0.272013 7.82393 0 6.95121 0C6.0785 0 5.22749 0.272013 4.51657 0.778197C3.80565 1.28438 3.27018 1.99956 2.98465 2.82425C2.69912 3.64893 2.67774 4.5421 2.92347 5.37951C3.1692 6.21691 3.66983 6.9569 4.35571 7.49653C3.18044 7.96738 2.15498 8.74835 1.38865 9.75616C0.622312 10.764 0.143833 11.9609 0.00421985 13.2192C-0.0058861 13.3111 0.00220259 13.4041 0.0280239 13.4928C0.0538453 13.5816 0.0968936 13.6643 0.154711 13.7365C0.271479 13.8821 0.441316 13.9754 0.626861 13.9958C0.812405 14.0162 0.998459 13.9621 1.14409 13.8453C1.28972 13.7285 1.383 13.5587 1.40341 13.3731C1.55703 12.0056 3.23511 9.82534 3.23511 9.82534C3.23511 9.82534 5.58903 8.40112 6.96521 8.40112C8.34138 8.40112 9.66932 8.90815 10.6953 9.82534C11.7213 10.7425 12.3734 12.0056 12.527 13.3731C12.546 13.545 12.628 13.7038 12.7572 13.8188C12.8864 13.9338 13.0536 13.9968 13.2266 13.9958H13.3036C13.4869 13.9747 13.6546 13.8819 13.7699 13.7378C13.8852 13.5937 13.9389 13.4098 13.9192 13.2262C13.7789 11.9643 13.2979 10.7643 12.5276 9.75497C11.7573 8.7456 10.7269 7.96489 9.54672 7.49653ZM6.95121 6.99981C6.39775 6.99981 5.85671 6.83569 5.39651 6.5282C4.93632 6.22071 4.57765 5.78366 4.36584 5.27232C4.15404 4.76098 4.09862 4.19832 4.2066 3.65549C4.31457 3.11265 4.5811 2.61403 4.97246 2.22267C5.36382 1.83131 5.86244 1.56478 6.40528 1.45681C6.94811 1.34883 7.51077 1.40425 8.02211 1.61605C8.53345 1.82786 8.9705 2.18653 9.27799 2.64672C9.58548 3.10692 9.7496 3.64796 9.7496 4.20143C9.7496 4.9436 9.45477 5.65538 8.92997 6.18018C8.40517 6.70498 7.69339 6.99981 6.95121 6.99981Z" fill="#101010"/>
</svg>
