<svg width="14" height="14" viewBox="0 0 14 14" fill="none" xmlns="http://www.w3.org/2000/svg">
<path d="M6.9999 4.89993C6.86146 4.89993 6.72612 4.94099 6.61101 5.0179C6.4959 5.09482 6.40618 5.20414 6.3532 5.33205C6.30022 5.45995 6.28635 5.6007 6.31336 5.73648C6.34037 5.87227 6.40704 5.99699 6.50493 6.09489C6.60283 6.19279 6.72756 6.25945 6.86334 6.28646C6.99913 6.31347 7.13987 6.29961 7.26778 6.24663C7.39568 6.19365 7.50501 6.10393 7.58192 5.98882C7.65884 5.8737 7.69989 5.73837 7.69989 5.59992C7.69989 5.41427 7.62614 5.23623 7.49487 5.10495C7.3636 4.97368 7.18555 4.89993 6.9999 4.89993ZM11.8998 0L2.09997 0C1.54302 0 1.00889 0.221246 0.615067 0.615067C0.221246 1.00889 0 1.54302 0 2.09997L0 9.09987C0 9.65682 0.221246 10.191 0.615067 10.5848C1.00889 10.9786 1.54302 11.1998 2.09997 11.1998H10.2129L12.8028 13.7968C12.8682 13.8617 12.9458 13.913 13.0311 13.9478C13.1164 13.9827 13.2077 14.0003 13.2998 13.9998C13.3916 14.0022 13.4827 13.983 13.5658 13.9438C13.6936 13.8913 13.8031 13.8021 13.8803 13.6875C13.9575 13.5729 13.9991 13.438 13.9998 13.2998V2.09997C13.9998 1.54302 13.7786 1.00889 13.3847 0.615067C12.9909 0.221246 12.4568 0 11.8998 0ZM12.5998 11.6128L10.9968 10.0029C10.9314 9.93799 10.8539 9.88666 10.7686 9.85182C10.6833 9.81699 10.592 9.79933 10.4999 9.79986H2.09997C1.91432 9.79986 1.73628 9.72612 1.605 9.59484C1.47373 9.46357 1.39998 9.28552 1.39998 9.09987V2.09997C1.39998 1.91432 1.47373 1.73628 1.605 1.605C1.73628 1.47373 1.91432 1.39998 2.09997 1.39998H11.8998C12.0855 1.39998 12.2635 1.47373 12.3948 1.605C12.5261 1.73628 12.5998 1.91432 12.5998 2.09997V11.6128ZM4.19994 4.89993C4.0615 4.89993 3.92616 4.94099 3.81105 5.0179C3.69594 5.09482 3.60622 5.20414 3.55323 5.33205C3.50025 5.45995 3.48639 5.6007 3.5134 5.73648C3.54041 5.87227 3.60708 5.99699 3.70497 6.09489C3.80287 6.19279 3.9276 6.25945 4.06338 6.28646C4.19917 6.31347 4.33991 6.29961 4.46782 6.24663C4.59572 6.19365 4.70505 6.10393 4.78196 5.98882C4.85888 5.8737 4.89993 5.73837 4.89993 5.59992C4.89993 5.41427 4.82618 5.23623 4.69491 5.10495C4.56364 4.97368 4.38559 4.89993 4.19994 4.89993ZM9.79986 4.89993C9.66142 4.89993 9.52608 4.94099 9.41097 5.0179C9.29586 5.09482 9.20614 5.20414 9.15316 5.33205C9.10018 5.45995 9.08631 5.6007 9.11332 5.73648C9.14033 5.87227 9.207 5.99699 9.3049 6.09489C9.40279 6.19279 9.52752 6.25945 9.6633 6.28646C9.79909 6.31347 9.93983 6.29961 10.0677 6.24663C10.1956 6.19365 10.305 6.10393 10.3819 5.98882C10.4588 5.8737 10.4999 5.73837 10.4999 5.59992C10.4999 5.41427 10.4261 5.23623 10.2948 5.10495C10.1636 4.97368 9.98551 4.89993 9.79986 4.89993Z" fill="#101010"/>
</svg>
